<svg xmlns="http://www.w3.org/2000/svg" width="156" height="161" viewBox="0 0 156 161" version="1.1"><path d="M 26.020 6.752 C 24.106 7.713, 21.518 10.029, 20.270 11.898 C 18.175 15.033, 18 16.396, 18 29.539 C 18 43.722, 17.990 43.786, 15.611 44.383 C 14.298 44.712, 11.858 46.536, 10.190 48.436 C 6.224 52.953, 5.724 57.262, 6.170 83.061 C 6.461 99.872, 6.823 104.050, 8.211 106.602 C 9.678 109.298, 13.874 113, 15.465 113 C 15.759 113, 16 100.040, 16 84.200 C 16 63.133, 16.322 55.078, 17.200 54.200 C 18.926 52.474, 104.074 52.474, 105.800 54.200 C 106.460 54.860, 107 57.110, 107 59.200 L 107 63 70.901 63 C 30.994 63, 30.196 63.113, 25.730 69.373 C 23.560 72.416, 23.500 73.200, 23.500 98.677 C 23.500 135.764, 21.611 133.996, 61.250 133.998 L 88 134 88 144 C 88 152.750, 88.256 154.256, 90.051 156.051 C 92.191 158.191, 94.510 158.048, 98.500 155.529 C 100.470 154.286, 121.936 135.584, 129.250 128.740 L 133 125.230 132.973 113.365 L 132.946 101.500 141.223 93.849 L 149.500 86.199 149.500 60.172 C 149.500 35.445, 149.397 34.008, 147.438 31.385 C 143.965 26.733, 140.804 25.038, 134.365 24.373 L 128.229 23.739 127.754 18.795 C 127.199 13.015, 124.715 9.192, 119.929 6.752 C 116.820 5.166, 112.440 5.003, 73 5.003 C 33.580 5.003, 29.174 5.167, 26.020 6.752 M 29 16 C 27.213 17.787, 27 19.333, 27 30.500 L 27 43 33.500 43 L 40 43 40 38.950 C 40 33.825, 42.071 29.799, 46.235 26.829 C 49.482 24.513, 49.696 24.498, 84.371 24.190 L 119.242 23.881 118.644 20.194 C 118.315 18.166, 117.274 15.943, 116.332 15.253 C 115.023 14.296, 104.736 14, 72.809 14 C 32.333 14, 30.936 14.064, 29 16 M 50.200 35.200 C 49.540 35.860, 49 37.854, 49 39.631 L 49 42.863 77.797 43.181 C 103.538 43.466, 106.885 43.691, 109.344 45.304 C 113.497 48.028, 115.992 52.835, 115.996 58.118 L 116 62.737 120.038 63.278 C 128.717 64.442, 132.288 69.098, 133 80.176 L 133.500 87.956 136.750 85.406 L 140 82.855 140 59.628 C 140 42.895, 139.664 36.064, 138.800 35.200 C 137.074 33.474, 51.926 33.474, 50.200 35.200 M 34.104 74.375 C 33.303 75.340, 33.043 82.715, 33.231 99.096 L 33.500 122.442 36 123.706 C 37.842 124.638, 46.158 124.974, 67.609 124.985 L 96.718 125 97.252 133.560 C 97.546 138.268, 98.041 142.374, 98.352 142.686 C 98.664 142.997, 104.449 138.322, 111.209 132.297 L 123.500 121.343 123.769 99.142 C 123.941 84.970, 123.657 76.228, 122.984 74.970 C 121.960 73.056, 120.687 73, 78.587 73 C 43.031 73, 35.040 73.247, 34.104 74.375 M 60.720 90.067 C 58.090 93.327, 55.710 96.592, 55.430 97.321 C 55.048 98.318, 61.874 108.125, 65.585 111.911 C 66.081 112.416, 70 108.952, 70 108.009 C 70 107.635, 68.357 105.220, 66.350 102.643 L 62.699 97.958 65.663 94.229 C 70.200 88.522, 70.357 88.052, 68.443 85.937 C 67.479 84.872, 66.422 84.031, 66.095 84.069 C 65.768 84.107, 63.349 86.806, 60.720 90.067 M 79.669 84.750 C 79.422 85.162, 77.571 91.084, 75.556 97.908 C 71.875 110.377, 71.876 111.932, 75.565 111.985 C 76.521 111.998, 84 88.292, 84 85.248 C 84 83.911, 80.418 83.500, 79.669 84.750 M 87.872 85.903 L 85.523 87.805 89.838 92.923 L 94.153 98.040 90.003 102.997 C 85.796 108.021, 85.641 109.202, 88.957 110.977 C 90.520 111.813, 91.669 110.893, 96.445 104.982 L 102.086 98 96.430 91 C 93.320 87.150, 90.650 84, 90.498 84 C 90.346 84, 89.164 84.856, 87.872 85.903" stroke="none" fill="#f9f2f2" fill-rule="evenodd"/></svg>