<svg xmlns="http://www.w3.org/2000/svg" width="512" height="512" viewBox="0 0 512 512" version="1.1"><path d="" stroke="none" fill="#080404" fill-rule="evenodd"/><path d="M 126.438 30.538 C 64.885 39.526, 19.564 79.205, 5.085 136.784 C 0.766 153.959, -0.283 165.184, 0.299 188 C 0.603 199.904, 1.514 213.310, 2.341 218.036 C 6.989 244.601, 15.717 267.668, 30.327 292 C 53.008 329.774, 102.693 376.910, 178 432.101 C 218.696 461.926, 250.751 483, 255.421 483 C 259.414 483, 266.717 478.702, 293.426 460.630 C 373.696 406.322, 435.148 353.848, 468.659 311 C 485.966 288.870, 500.462 258.792, 506.973 231.500 C 508.786 223.903, 510.963 209.952, 510.983 205.809 C 510.992 203.779, 511.450 201.840, 512 201.500 C 512.613 201.121, 513 193.137, 513 180.882 C 513 169.881, 512.611 161.123, 512.135 161.417 C 511.659 161.711, 510.970 159.399, 510.603 156.280 C 508.030 134.386, 499.056 109.398, 487.697 92.500 C 459.752 50.925, 410.322 27.093, 356.574 29.282 C 335.606 30.135, 314.683 35.075, 299.500 42.756 C 285.548 49.815, 268.771 63.653, 259.911 75.412 C 258.035 77.901, 256.201 79.952, 255.835 79.969 C 255.470 79.986, 253.533 77.770, 251.533 75.045 C 245.935 67.419, 231.118 54.081, 221.733 48.219 C 196.336 32.356, 160.070 25.627, 126.438 30.538 M 0.422 182 C 0.422 193.275, 0.568 197.887, 0.746 192.250 C 0.924 186.613, 0.924 177.387, 0.746 171.750 C 0.568 166.113, 0.422 170.725, 0.422 182" stroke="none" fill="#807AD6" fill-rule="evenodd"/></svg>