<svg xmlns="http://www.w3.org/2000/svg" width="512" height="512" viewBox="0 0 512 512" version="1.1"><path d="" stroke="none" fill="#080404" fill-rule="evenodd"/><path d="M 118.500 33.502 C 60.002 42.812, 14.695 85.900, 2.312 144 C -0.505 157.215, -0.262 186.945, 2.779 201.139 C 6.984 220.764, 15.776 240.537, 26.849 255.272 C 29.994 259.457, 79.420 310.037, 138.311 369.336 C 217.429 449.002, 245.259 476.431, 248.629 478.063 C 254.242 480.780, 260.420 480.313, 265.768 476.768 C 267.821 475.408, 317.431 425.966, 376.013 366.897 C 488.825 253.150, 488.032 254.009, 497.396 235.265 C 504.158 221.729, 511 198.770, 511 189.617 C 511 188.242, 511.450 186.840, 512 186.500 C 512.597 186.131, 513 179.637, 513 170.382 C 513 160.303, 512.650 155.098, 512 155.500 C 511.431 155.852, 511 154.996, 511 153.517 C 511 149.014, 507.984 135.851, 504.811 126.500 C 491.543 87.409, 459.371 54.340, 421.308 40.668 C 378.496 25.291, 332.644 30.619, 295.218 55.320 C 283.483 63.065, 267.785 77.569, 260.888 87.040 C 258.501 90.318, 256.302 93, 256 93 C 255.698 93, 253.499 90.318, 251.112 87.040 C 239.661 71.316, 215.837 52.523, 196.782 44.183 C 172.502 33.557, 143.244 29.565, 118.500 33.502 M 124.500 67.038 C 94.559 71.704, 68.090 88.524, 51.535 113.405 C 40.419 130.111, 35.215 146.465, 34.322 167.500 C 33.185 194.307, 40.753 218.132, 56.666 237.836 C 60.071 242.051, 106.313 288.924, 159.428 341.998 L 256 438.496 352.572 341.998 C 405.687 288.924, 452.049 241.901, 455.600 237.503 C 471.068 218.342, 478.795 193.842, 477.678 167.500 C 476.783 146.426, 471.584 130.114, 460.404 113.312 C 445.994 91.656, 424.199 76.201, 398.351 69.310 C 389.667 66.995, 386.604 66.684, 372.500 66.684 C 358.424 66.684, 355.324 66.997, 346.723 69.291 C 335.579 72.263, 321.219 78.756, 311.877 85.047 C 296.977 95.081, 281.935 113.605, 274.450 131.138 C 272.487 135.737, 270.226 140.507, 269.425 141.737 C 267.349 144.930, 260.768 148, 256 148 C 251.232 148, 244.651 144.930, 242.575 141.737 C 241.774 140.507, 239.513 135.737, 237.550 131.138 C 221.250 92.957, 184.435 67.787, 143 66.493 C 136.125 66.279, 127.800 66.524, 124.500 67.038 M 0.405 171.500 C 0.406 180.300, 0.559 183.766, 0.745 179.203 C 0.930 174.639, 0.929 167.439, 0.742 163.203 C 0.555 158.966, 0.404 162.700, 0.405 171.500" stroke="none" fill="#040404" fill-rule="evenodd"/></svg>