<svg xmlns="http://www.w3.org/2000/svg" width="920" height="754" viewBox="0 0 920 754" version="1.1"><path d="M 478.817 41.749 C 490.542 41.909, 509.442 41.909, 520.817 41.749 C 532.193 41.588, 522.600 41.457, 499.500 41.458 C 476.400 41.458, 467.093 41.589, 478.817 41.749 M 436.250 42.735 C 438.863 42.941, 443.137 42.941, 445.750 42.735 C 448.363 42.529, 446.225 42.360, 441 42.360 C 435.775 42.360, 433.637 42.529, 436.250 42.735 M 571.280 42.736 C 573.909 42.943, 577.959 42.940, 580.280 42.731 C 582.601 42.521, 580.450 42.352, 575.500 42.355 C 570.550 42.358, 568.651 42.530, 571.280 42.736 M 448.250 54.728 C 450.313 54.944, 453.688 54.944, 455.750 54.728 C 457.813 54.513, 456.125 54.336, 452 54.336 C 447.875 54.336, 446.188 54.513, 448.250 54.728 M 555.250 54.748 C 563.913 54.915, 578.087 54.915, 586.750 54.748 C 595.413 54.582, 588.325 54.445, 571 54.445 C 553.675 54.445, 546.587 54.582, 555.250 54.748 M 404.776 57.733 C 407.128 57.945, 410.728 57.942, 412.776 57.727 C 414.824 57.512, 412.900 57.339, 408.500 57.343 C 404.100 57.346, 402.424 57.522, 404.776 57.733 M 534.750 83.737 C 537.638 83.939, 542.362 83.939, 545.250 83.737 C 548.138 83.535, 545.775 83.370, 540 83.370 C 534.225 83.370, 531.862 83.535, 534.750 83.737 M 706 92.500 C 709.543 96.075, 712.667 99, 712.942 99 C 713.217 99, 710.543 96.075, 707 92.500 C 703.457 88.925, 700.333 86, 700.058 86 C 699.783 86, 702.457 88.925, 706 92.500 M 463.206 90.741 C 466.895 90.932, 473.195 90.934, 477.206 90.743 C 481.218 90.553, 478.200 90.396, 470.500 90.395 C 462.800 90.393, 459.518 90.549, 463.206 90.741 M 326.500 105.842 C 324.850 106.850, 322.839 108.536, 322.030 109.588 L 320.561 111.500 323.030 109.372 C 324.389 108.201, 326.850 106.531, 328.500 105.662 C 330.150 104.792, 331.050 104.064, 330.500 104.044 C 329.950 104.024, 328.150 104.833, 326.500 105.842 M 489.750 111.723 C 491.538 111.945, 494.462 111.945, 496.250 111.723 C 498.038 111.502, 496.575 111.320, 493 111.320 C 489.425 111.320, 487.962 111.502, 489.750 111.723 M 516.728 111.722 C 518.503 111.943, 521.653 111.946, 523.728 111.730 C 525.802 111.513, 524.350 111.333, 520.500 111.328 C 516.650 111.324, 514.952 111.501, 516.728 111.722 M 502.776 118.733 C 505.128 118.945, 508.728 118.942, 510.776 118.727 C 512.824 118.512, 510.900 118.339, 506.500 118.343 C 502.100 118.346, 500.424 118.522, 502.776 118.733 M 736.208 136.468 C 737.962 140.025, 739.563 142.771, 739.764 142.569 C 740.211 142.122, 734.165 130, 733.495 130 C 733.233 130, 734.454 132.911, 736.208 136.468 M 132.300 149 C 132.300 152.025, 132.487 153.262, 132.716 151.750 C 132.945 150.238, 132.945 147.762, 132.716 146.250 C 132.487 144.738, 132.300 145.975, 132.300 149 M 631.359 154.201 C 634.430 156.566, 633.060 159.406, 628.490 160.146 L 624.500 160.791 628.399 160.646 C 632.915 160.477, 635.171 158.081, 633.423 155.310 C 632.837 154.380, 631.714 153.428, 630.929 153.195 C 630.114 152.953, 630.299 153.385, 631.359 154.201 M 523.789 159.741 C 527.248 159.937, 532.648 159.936, 535.789 159.738 C 538.930 159.540, 536.100 159.380, 529.500 159.382 C 522.900 159.384, 520.330 159.546, 523.789 159.741 M 273 187 L 268.500 187.700 272 187.792 C 273.925 187.843, 277.300 187.512, 279.500 187.057 L 283.500 186.230 280.500 186.265 C 278.850 186.285, 275.475 186.615, 273 187 M 247.250 187.716 C 248.762 187.945, 251.238 187.945, 252.750 187.716 C 254.262 187.487, 253.025 187.300, 250 187.300 C 246.975 187.300, 245.738 187.487, 247.250 187.716 M 752.854 197.748 L 734.209 198.043 732.993 199.509 C 732.324 200.315, 732.030 201.637, 732.341 202.446 L 732.906 203.917 752.454 204.209 C 763.205 204.369, 772.002 204.162, 772.001 203.750 C 772 203.338, 763.192 203, 752.427 203 L 732.853 203 733.190 201.250 L 733.526 199.500 751.986 199.227 C 762.266 199.074, 770.880 198.520, 771.423 197.977 C 771.961 197.439, 772.197 197.102, 771.950 197.227 C 771.702 197.351, 763.110 197.586, 752.854 197.748 M 245.500 199.672 C 257.479 200.396, 271.777 200.439, 271.348 199.750 C 271.092 199.338, 264.046 199.083, 255.691 199.185 C 247.336 199.287, 242.750 199.506, 245.500 199.672 M 252.750 203.723 C 254.537 203.945, 257.462 203.945, 259.250 203.723 C 261.038 203.502, 259.575 203.320, 256 203.320 C 252.425 203.320, 250.963 203.502, 252.750 203.723 M 556.768 203.725 C 558.565 203.947, 561.265 203.943, 562.768 203.715 C 564.271 203.486, 562.800 203.304, 559.500 203.310 C 556.200 203.315, 554.971 203.502, 556.768 203.725 M 170.933 207.707 L 174.881 208.109 175.284 210.805 L 175.686 213.500 175.593 210.500 L 175.500 207.500 171.243 207.402 L 166.985 207.304 170.933 207.707 M 70.971 216.750 L 64.500 223.500 71.250 217.029 C 74.963 213.470, 78 210.432, 78 210.279 C 78 209.543, 76.982 210.480, 70.971 216.750 M 555.750 215.743 C 559.737 215.932, 566.263 215.932, 570.250 215.743 C 574.237 215.553, 570.975 215.397, 563 215.397 C 555.025 215.397, 551.763 215.553, 555.750 215.743 M 643.394 216.416 C 643.095 217.194, 642.997 219.107, 643.175 220.666 L 643.500 223.500 647.500 223.586 L 651.500 223.671 647.750 223.278 L 644 222.885 644 219.500 L 644 216.115 648.250 215.732 L 652.500 215.349 648.219 215.175 C 645.323 215.057, 643.761 215.458, 643.394 216.416 M 83.060 224.305 L 75.621 232.500 81.388 227 C 86.312 222.305, 91.850 215.877, 90.818 216.055 C 90.643 216.085, 87.152 219.798, 83.060 224.305 M 111.462 221.250 L 106.500 226.500 111.750 221.538 C 116.628 216.926, 117.459 216, 116.712 216 C 116.554 216, 114.192 218.363, 111.462 221.250 M 810.500 227 C 814.320 230.850, 817.671 234, 817.946 234 C 818.221 234, 815.320 230.850, 811.500 227 C 807.680 223.150, 804.329 220, 804.054 220 C 803.779 220, 806.680 223.150, 810.500 227 M 116.462 226.250 L 111.500 231.500 116.750 226.538 C 121.628 221.926, 122.459 221, 121.712 221 C 121.554 221, 119.192 223.363, 116.462 226.250 M 798.500 228 C 801.209 230.750, 803.650 233, 803.925 233 C 804.200 233, 802.209 230.750, 799.500 228 C 796.791 225.250, 794.350 223, 794.075 223 C 793.800 223, 795.791 225.250, 798.500 228 M 795.534 231.045 C 798.265 234.094, 800.979 237.437, 801.564 238.473 C 802.863 240.774, 806.054 239.893, 805.884 237.281 L 805.768 235.500 805.311 237.250 C 804.715 239.529, 802.295 239.505, 801.567 237.212 C 801.255 236.229, 798.653 233.192, 795.784 230.462 L 790.568 225.500 795.534 231.045 M 62.300 245 C 62.300 248.025, 62.487 249.262, 62.716 247.750 C 62.945 246.238, 62.945 243.762, 62.716 242.250 C 62.487 240.738, 62.300 241.975, 62.300 245 M 112.046 241.445 C 111.386 242.240, 111.045 243.927, 111.287 245.195 L 111.728 247.500 111.864 244.719 C 112.025 241.434, 114.322 240.224, 116.763 242.138 L 118.500 243.500 117.128 241.750 C 115.459 239.622, 113.649 239.514, 112.046 241.445 M 79.310 266.500 C 79.315 269.800, 79.502 271.029, 79.725 269.232 C 79.947 267.435, 79.943 264.735, 79.715 263.232 C 79.486 261.729, 79.304 263.200, 79.310 266.500 M 87.300 267 C 87.300 270.025, 87.487 271.262, 87.716 269.750 C 87.945 268.238, 87.945 265.762, 87.716 264.250 C 87.487 262.738, 87.300 263.975, 87.300 267 M 60.360 276 C 60.360 281.225, 60.529 283.363, 60.735 280.750 C 60.941 278.137, 60.941 273.863, 60.735 271.250 C 60.529 268.637, 60.360 270.775, 60.360 276 M 73.360 276 C 73.360 281.225, 73.529 283.363, 73.735 280.750 C 73.941 278.137, 73.941 273.863, 73.735 271.250 C 73.529 268.637, 73.360 270.775, 73.360 276 M 858.378 282 C 858.378 288.325, 858.541 290.913, 858.739 287.750 C 858.937 284.587, 858.937 279.413, 858.739 276.250 C 858.541 273.087, 858.378 275.675, 858.378 282 M 539.250 277.728 C 541.313 277.944, 544.688 277.944, 546.750 277.728 C 548.813 277.513, 547.125 277.336, 543 277.336 C 538.875 277.336, 537.188 277.513, 539.250 277.728 M 556.750 277.723 C 558.538 277.945, 561.462 277.945, 563.250 277.723 C 565.038 277.502, 563.575 277.320, 560 277.320 C 556.425 277.320, 554.962 277.502, 556.750 277.723 M 437.459 280.067 C 437.096 280.653, 437.070 281.403, 437.400 281.733 C 437.730 282.063, 438 281.808, 438 281.167 C 438 280.317, 443.354 280, 457.686 280 L 477.371 280 479.936 282.250 L 482.500 284.500 480.076 281.750 L 477.651 279 457.885 279 C 444.964 279, 437.890 279.369, 437.459 280.067 M 324.319 286.041 C 321.469 288.201, 318.836 290.456, 318.468 291.053 C 318.099 291.649, 320.543 290.049, 323.899 287.497 C 327.254 284.945, 330 282.664, 330 282.428 C 330 281.759, 329.812 281.878, 324.319 286.041 M 424.250 306.716 C 425.762 306.945, 428.238 306.945, 429.750 306.716 C 431.262 306.487, 430.025 306.300, 427 306.300 C 423.975 306.300, 422.738 306.487, 424.250 306.716 M 118.003 320.750 C 118.005 321.163, 120.005 321.511, 122.448 321.525 C 124.891 321.538, 126.352 321.208, 125.695 320.790 C 124.145 319.805, 117.999 319.773, 118.003 320.750 M 96.058 323.430 C 95.405 324.217, 95.049 326.579, 95.267 328.680 L 95.664 332.500 95.832 328.450 C 95.924 326.222, 96.540 323.860, 97.200 323.200 C 97.860 322.540, 98.140 322, 97.822 322 C 97.505 322, 96.711 322.644, 96.058 323.430 M 533 326.892 L 535.500 327.585 536.049 339.542 L 536.598 351.500 536.799 339.950 C 537.011 327.779, 536.438 325.911, 532.550 326.100 L 530.500 326.199 533 326.892 M 125.167 331.250 C 127.233 333.313, 129.727 334.971, 130.711 334.937 C 132.006 334.891, 131.810 334.599, 130 333.882 C 128.625 333.336, 126.130 331.677, 124.456 330.195 C 122.782 328.713, 123.102 329.188, 125.167 331.250 M 528.374 340.500 C 528.376 346.550, 528.541 348.896, 528.740 345.713 C 528.939 342.531, 528.937 337.581, 528.736 334.713 C 528.535 331.846, 528.372 334.450, 528.374 340.500 M 201.473 343.577 L 196.500 348.153 201.750 343.920 C 206.460 340.122, 207.594 339, 206.723 339 C 206.570 339, 204.208 341.059, 201.473 343.577 M 354 339.910 C 356.475 340.263, 359.175 340.911, 360 341.350 C 360.825 341.789, 360.626 341.440, 359.559 340.574 C 358.419 339.650, 355.942 339.055, 353.559 339.134 L 349.500 339.267 354 339.910 M 185.481 350.250 L 175.500 360.500 185.750 350.519 C 195.270 341.248, 196.455 340, 195.731 340 C 195.583 340, 190.971 344.613, 185.481 350.250 M 771.687 344.705 C 775.529 344.998, 776.981 345.541, 777.285 346.800 C 777.577 348.007, 777.668 347.920, 777.598 346.500 L 777.500 344.500 772 344.405 L 766.500 344.309 771.687 344.705 M 189.469 354.250 L 183.500 360.500 189.750 354.531 C 195.556 348.987, 196.458 348, 195.719 348 C 195.564 348, 192.751 350.813, 189.469 354.250 M 344.768 354.725 C 346.565 354.947, 349.265 354.943, 350.768 354.715 C 352.271 354.486, 350.800 354.304, 347.500 354.310 C 344.200 354.315, 342.971 354.502, 344.768 354.725 M 585.320 371 C 585.320 374.575, 585.502 376.038, 585.723 374.250 C 585.945 372.462, 585.945 369.538, 585.723 367.750 C 585.502 365.962, 585.320 367.425, 585.320 371 M 577.310 371.500 C 577.315 374.800, 577.502 376.029, 577.725 374.232 C 577.947 372.435, 577.943 369.735, 577.715 368.232 C 577.486 366.729, 577.304 368.200, 577.310 371.500 M 804.469 380.250 L 798.500 386.500 804.750 380.531 C 808.188 377.249, 811 374.436, 811 374.281 C 811 373.542, 810.013 374.444, 804.469 380.250 M 530.310 386.500 C 530.315 389.800, 530.502 391.029, 530.725 389.232 C 530.947 387.435, 530.943 384.735, 530.715 383.232 C 530.486 381.729, 530.304 383.200, 530.310 386.500 M 538.320 387 C 538.320 390.575, 538.502 392.038, 538.723 390.250 C 538.945 388.462, 538.945 385.538, 538.723 383.750 C 538.502 381.962, 538.320 383.425, 538.320 387 M 584.343 389.500 C 584.346 393.900, 584.522 395.576, 584.733 393.224 C 584.945 390.872, 584.942 387.272, 584.727 385.224 C 584.512 383.176, 584.339 385.100, 584.343 389.500 M 576.320 391 C 576.320 394.575, 576.502 396.038, 576.723 394.250 C 576.945 392.462, 576.945 389.538, 576.723 387.750 C 576.502 385.962, 576.320 387.425, 576.320 391 M 531.343 404.500 C 531.346 408.900, 531.522 410.576, 531.733 408.224 C 531.945 405.872, 531.942 402.272, 531.727 400.224 C 531.512 398.176, 531.339 400.100, 531.343 404.500 M 539.320 406 C 539.320 409.575, 539.502 411.038, 539.723 409.250 C 539.945 407.462, 539.945 404.538, 539.723 402.750 C 539.502 400.962, 539.320 402.425, 539.320 406 M 97.320 412 C 97.320 415.575, 97.502 417.038, 97.723 415.250 C 97.945 413.462, 97.945 410.538, 97.723 408.750 C 97.502 406.962, 97.320 408.425, 97.320 412 M 532.355 433.500 C 532.352 438.450, 532.521 440.601, 532.731 438.280 C 532.940 435.959, 532.943 431.909, 532.736 429.280 C 532.530 426.651, 532.358 428.550, 532.355 433.500 M 540.355 433.500 C 540.352 438.450, 540.521 440.601, 540.731 438.280 C 540.940 435.959, 540.943 431.909, 540.736 429.280 C 540.530 426.651, 540.358 428.550, 540.355 433.500 M 97.336 445 C 97.336 449.125, 97.513 450.813, 97.728 448.750 C 97.944 446.688, 97.944 443.313, 97.728 441.250 C 97.513 439.188, 97.336 440.875, 97.336 445 M 713.462 472.250 L 708.500 477.500 713.750 472.538 C 718.628 467.926, 719.459 467, 718.712 467 C 718.554 467, 716.192 469.363, 713.462 472.250 M 724.481 481.250 L 714.500 491.500 724.750 481.519 C 730.388 476.029, 735 471.417, 735 471.269 C 735 470.545, 733.752 471.730, 724.481 481.250 M 227.750 480.740 C 231.188 480.936, 236.813 480.936, 240.250 480.740 C 243.688 480.545, 240.875 480.385, 234 480.385 C 227.125 480.385, 224.313 480.545, 227.750 480.740 M 139.035 502.934 C 138.466 503.998, 138.063 506.811, 138.141 509.184 L 138.282 513.500 138.909 508.500 C 139.253 505.750, 139.892 502.938, 140.327 502.250 C 140.762 501.563, 140.882 501, 140.594 501 C 140.306 501, 139.605 501.870, 139.035 502.934 M 251.287 517.740 C 254.469 517.939, 259.419 517.937, 262.287 517.736 C 265.154 517.535, 262.550 517.372, 256.500 517.374 C 250.450 517.376, 248.104 517.541, 251.287 517.740 M 231.349 526 C 231.349 530.675, 231.522 532.587, 231.732 530.250 C 231.943 527.913, 231.943 524.087, 231.732 521.750 C 231.522 519.413, 231.349 521.325, 231.349 526 M 273.982 544.250 C 283.718 554.235, 285 555.454, 285 554.732 C 285 554.585, 280.163 549.747, 274.250 543.982 L 263.500 533.500 273.982 544.250 M 167 538.865 L 171.500 539.500 171.500 542 L 171.500 544.500 165.500 545.111 L 159.500 545.721 165.396 545.611 L 171.293 545.500 172.391 543.750 C 174.261 540.772, 171.964 538.520, 166.898 538.365 L 162.500 538.231 167 538.865 M 292.966 542.391 L 296.186 546.281 295.802 549.571 C 295.591 551.380, 295.774 552.640, 296.209 552.371 C 298.319 551.067, 296.850 545.816, 293.373 542.235 L 289.746 538.500 292.966 542.391 M 88.300 549 C 88.300 552.025, 88.487 553.263, 88.716 551.750 C 88.945 550.237, 88.945 547.763, 88.716 546.250 C 88.487 544.737, 88.300 545.975, 88.300 549 M 104.300 553 C 104.300 556.025, 104.487 557.263, 104.716 555.750 C 104.945 554.237, 104.945 551.763, 104.716 550.250 C 104.487 548.737, 104.300 549.975, 104.300 553 M 87.300 566 C 87.300 569.025, 87.487 570.263, 87.716 568.750 C 87.945 567.237, 87.945 564.763, 87.716 563.250 C 87.487 561.737, 87.300 562.975, 87.300 566 M 103.150 571.691 C 103.067 575.646, 103.338 579.091, 103.750 579.347 C 104.162 579.603, 104.371 577.492, 104.214 574.656 C 103.705 565.461, 103.303 564.342, 103.150 571.691 M 218.750 643.723 C 220.537 643.945, 223.463 643.945, 225.250 643.723 C 227.037 643.502, 225.575 643.320, 222 643.320 C 218.425 643.320, 216.963 643.502, 218.750 643.723 M 250.728 643.722 C 252.503 643.943, 255.653 643.946, 257.728 643.730 C 259.802 643.513, 258.350 643.333, 254.500 643.328 C 250.650 643.324, 248.952 643.501, 250.728 643.722 M 215.250 659.716 C 216.762 659.945, 219.238 659.945, 220.750 659.716 C 222.262 659.487, 221.025 659.300, 218 659.300 C 214.975 659.300, 213.738 659.487, 215.250 659.716 M 255.768 659.725 C 257.565 659.947, 260.265 659.943, 261.768 659.715 C 263.271 659.486, 261.800 659.304, 258.500 659.310 C 255.200 659.315, 253.971 659.502, 255.768 659.725" stroke="none" fill="#8a8a8a" fill-rule="evenodd"/><path d="M 601.787 41.546 C 601.486 41.847, 561.924 42.279, 513.870 42.506 C 419.587 42.953, 411.054 43.139, 377 45.496 C 311.632 50.021, 259.493 57.900, 211.126 70.562 C 196.429 74.409, 195.715 74.704, 189.365 79.551 C 186.954 81.392, 177.355 87.210, 168.034 92.481 C 140.872 107.840, 130.075 116.889, 122.283 130.822 L 118.626 137.361 118.393 147.930 C 117.984 166.486, 113.612 177.492, 102.055 189.065 L 94.500 196.630 87.893 199.475 L 81.286 202.321 80.018 205.827 C 79.321 207.755, 75.269 213.028, 71.015 217.545 L 63.280 225.757 62.614 241.128 C 62.248 249.583, 61.680 262.861, 61.352 270.636 C 60.656 287.105, 61.819 295.674, 65.948 304.500 C 67.492 307.800, 69.055 312.506, 69.423 314.958 C 70.288 320.736, 73.309 327.523, 77.156 332.329 C 83.627 340.413, 91.078 362.181, 95.015 384.500 C 96.571 393.321, 97.280 402.594, 97.690 419.500 C 98.289 444.167, 97.488 459.067, 93.444 498.500 C 90.936 522.949, 88.638 550.725, 87.487 570.500 L 86.847 581.500 91.977 590 C 106.420 613.930, 122.595 628.878, 147.500 641.312 C 186.646 660.856, 243.771 665.147, 303.604 653.038 C 311.797 651.380, 320.075 649.530, 322 648.927 C 323.925 648.324, 330.450 647.222, 336.500 646.479 C 366.505 642.794, 377.494 640.913, 382.421 638.617 C 385.215 637.315, 391.100 635.476, 395.500 634.529 C 404.723 632.545, 411.505 629.813, 414.731 626.783 C 416.305 625.304, 422.709 623.229, 435.908 619.921 C 470.532 611.243, 506.876 597.943, 565.500 572.498 C 580.350 566.053, 604.650 555.642, 619.500 549.363 C 655.844 533.996, 674.975 523.082, 699 504.012 C 710.942 494.533, 735.653 470.175, 744.665 459 C 758.840 441.422, 771.321 422.289, 780.359 404.286 L 784.984 395.072 790.713 391.407 C 798.656 386.326, 807.589 377.516, 818.504 364 C 836.896 341.226, 846.145 325.514, 853.954 303.780 L 858.164 292.059 857.832 279.592 L 857.500 267.125 854.883 264.313 C 853.443 262.766, 850.998 259.250, 849.449 256.500 C 839.727 239.236, 824.075 219.518, 812.564 210.032 C 808.915 207.025, 804.620 202.525, 803.020 200.032 C 798.532 193.038, 794.060 189.236, 789 188.113 C 785.746 187.391, 783.578 186.060, 781.169 183.307 C 774.286 175.439, 765.456 160.841, 755.276 140.500 C 738.496 106.967, 731.938 97.024, 716.272 81.358 C 693.224 58.310, 670.576 48.888, 624 42.970 C 608.023 40.940, 602.733 40.601, 601.787 41.546 M 434.500 55.051 C 428.450 55.439, 420.350 56.050, 416.500 56.409 C 412.650 56.769, 395.855 57.956, 379.179 59.047 C 316.235 63.167, 267.007 70.378, 219.680 82.412 L 201.860 86.943 198.180 89.760 C 192.689 93.962, 187.685 97.051, 173.417 105.041 C 150.885 117.661, 141.936 124.730, 136 134.599 L 132.500 140.418 131.855 151.969 C 130.884 169.376, 125.808 182.873, 115.697 194.937 C 110.856 200.712, 102.237 207.609, 96.247 210.500 C 93.967 211.600, 91.649 213.490, 91.095 214.701 C 90.541 215.911, 87.001 220.186, 83.229 224.201 L 76.371 231.500 74.553 254.306 C 72.669 277.946, 72.892 286.546, 75.606 294.817 C 77.164 299.568, 80.471 303.445, 82.104 302.436 C 83.445 301.607, 83.179 292.639, 81.514 282.500 C 78.647 265.053, 80.141 253.576, 86.133 247.016 C 89.163 243.698, 91.592 243.399, 93.314 246.134 L 94.343 247.767 91.234 252.461 C 86.809 259.141, 86.400 264.568, 88.956 282.685 C 91.046 297.508, 91.032 299.680, 88.794 307.240 L 87.687 310.979 89.495 314.990 C 91.400 319.213, 92.683 319.990, 93.638 317.500 C 94.397 315.522, 97.899 315.573, 98.666 317.572 C 98.998 318.437, 98.309 320.444, 97.135 322.032 C 94.202 325.998, 94.445 329.245, 98.369 338.548 C 114.367 376.482, 117.552 422.110, 109.430 497 C 107.036 519.068, 104.180 551.617, 103.454 565.114 L 102.775 577.727 104.553 580.614 C 118.050 602.527, 132.362 616.072, 153 626.466 C 177.083 638.594, 203.410 644, 238.396 644 C 259.711 644, 281.550 641.748, 301 637.544 C 307.325 636.176, 315.875 634.331, 320 633.443 C 324.125 632.554, 331.550 630.750, 336.500 629.433 C 346.435 626.790, 362.157 623.460, 383.500 619.478 C 399.658 616.464, 406.681 614.573, 408.916 612.638 C 409.787 611.883, 412.525 610.958, 414.999 610.581 C 422.341 609.464, 443.467 604.093, 457.453 599.789 C 485.371 591.196, 512.683 580.423, 576 553.032 C 592.775 545.775, 612.575 537.359, 620 534.329 C 646.975 523.321, 670.849 509.238, 691.991 491.864 C 724.657 465.019, 750.233 433.477, 767.847 398.313 C 771.205 391.610, 774.705 385.705, 775.625 385.190 C 776.544 384.675, 778.553 380.808, 780.089 376.596 C 783.947 366.015, 787.605 361.736, 796.338 357.591 C 800.277 355.721, 804.960 353.888, 806.745 353.517 L 809.990 352.843 817.099 343.135 C 825.911 331.101, 833.577 317.813, 838.025 306.862 L 841.422 298.500 841.804 284.286 L 842.186 270.072 836.359 260.286 C 828.043 246.322, 817.277 232.390, 808.382 224.083 C 804.158 220.138, 799.879 216.471, 798.874 215.933 L 797.046 214.954 795.023 216.977 C 793.910 218.090, 793 219.686, 793 220.525 C 793 221.364, 795.700 224.953, 799 228.500 C 804.794 234.728, 806.625 239, 803.500 239 C 802.675 239, 802 238.517, 802 237.926 C 802 237.335, 799.573 234.297, 796.606 231.176 C 793.639 228.054, 790.534 223.866, 789.707 221.869 L 788.202 218.239 781.351 216.045 C 769.982 212.405, 768.820 211.075, 771.478 204.750 L 772.214 203 752.534 203 L 732.853 203 733.189 201.250 L 733.525 199.500 752.500 199 L 771.475 198.500 771.797 196.824 C 771.973 195.903, 769.637 192.078, 766.606 188.324 C 759.088 179.018, 753.441 169.337, 740.457 143.500 C 728.268 119.242, 723.314 111.189, 713.529 99.721 C 691.589 74.008, 670.037 63.687, 626.500 58.047 C 617.700 56.907, 607.998 55.530, 604.940 54.987 C 598.627 53.866, 452.121 53.921, 434.500 55.051 M 467.675 73.405 C 466.826 75.617, 470.030 77.468, 479 79.951 C 489.920 82.973, 507.783 84.289, 528 83.560 C 537.625 83.213, 550 83.374, 555.500 83.918 L 565.500 84.907 566.868 83.550 C 568.634 81.798, 567.731 80.413, 564.265 79.554 C 562.744 79.177, 544.850 78.502, 524.500 78.054 L 487.500 77.240 480.500 75.012 C 470.358 71.783, 468.392 71.537, 467.675 73.405 M 319.500 80.959 C 316.200 81.953, 308.100 84.664, 301.500 86.985 C 294.900 89.306, 284.789 92.676, 279.032 94.475 C 268.041 97.908, 265.403 99.831, 268.049 102.478 L 269.565 103.993 276.532 102.060 C 280.365 100.997, 289.800 97.891, 297.500 95.157 C 309.068 91.050, 320.928 87.223, 327.773 85.387 C 329.704 84.869, 330.377 82.159, 328.989 80.487 C 327.482 78.671, 327.024 78.694, 319.500 80.959 M 433.053 86.436 C 428.051 92.464, 447.917 97.974, 474.715 97.992 L 485.930 98 487.034 95.936 C 487.854 94.404, 487.832 93.502, 486.947 92.436 L 485.755 91 472.128 90.965 C 457.616 90.928, 445.319 89.251, 440.218 86.613 C 436.370 84.623, 434.594 84.579, 433.053 86.436 M 364.894 94.467 C 361.452 98.250, 355.950 100.355, 346.500 101.506 C 332.571 103.202, 328.113 104.986, 319.692 112.238 C 312.940 118.051, 311.507 118.459, 292.500 119.986 C 268.082 121.946, 250.765 124.035, 241.959 126.083 L 233.418 128.069 231.749 131.284 C 230.831 133.053, 228.922 137.177, 227.507 140.449 C 224.175 148.153, 220.440 153, 217.834 153 L 215.770 153 216.446 147.587 L 217.122 142.174 215.202 141.564 C 212.480 140.700, 210.450 141.717, 209.135 144.602 C 207.848 147.429, 207.641 154.887, 208.800 156.711 C 209.883 158.415, 216.415 161, 219.639 161 C 223.826 161, 229.887 153.919, 234.433 143.715 L 238.320 134.991 241.910 134.031 C 248.805 132.187, 264.645 130.091, 283.500 128.528 C 293.950 127.661, 305.200 126.559, 308.500 126.079 C 314.958 125.138, 315.626 125.338, 322.845 130.371 C 327.857 133.864, 334.929 134.996, 336.901 132.619 C 338.781 130.355, 337.522 128, 334.433 128 C 330.788 128, 325 125.089, 325 123.255 L 325 121.738 328.414 122.292 L 331.829 122.846 333.536 120.960 C 335.647 118.627, 334.853 116.275, 331.526 115.010 C 330.137 114.482, 329 113.825, 329 113.550 C 329 112.194, 335.337 110.091, 342.500 109.071 C 346.900 108.444, 352.750 107.446, 355.500 106.853 C 365.035 104.799, 372.534 98.752, 371.812 93.701 C 371.318 90.247, 368.444 90.565, 364.894 94.467 M 488 112.051 C 481.675 112.464, 472.225 113.531, 467 114.421 L 457.500 116.038 452.874 121.163 C 446.948 127.729, 442.196 135.591, 439.842 142.728 C 437.569 149.616, 438.134 152.238, 441.797 151.808 L 444.423 151.500 446.604 145.149 C 448.951 138.315, 457.011 125.676, 460.414 123.493 C 461.561 122.757, 468.350 121.382, 475.500 120.438 C 499.643 117.249, 535.701 118.642, 564.672 123.881 L 574.845 125.721 580.147 131.469 C 587.327 139.255, 599.918 149.186, 607.917 153.374 C 620.163 159.785, 632.044 161.821, 632.836 157.644 C 633.335 155.009, 632.180 154.197, 625.446 152.449 C 611.893 148.931, 601.440 142.245, 587.646 128.270 L 578.792 119.300 570.146 117.660 C 555.399 114.863, 540.152 113.011, 523.500 111.995 C 506.131 110.934, 505.046 110.936, 488 112.051 M 322.969 151.059 L 321.867 153.117 325.101 158.157 L 328.335 163.197 328.551 169.006 C 328.807 175.878, 329.352 177, 332.437 177 C 335.901 177, 337.268 174.588, 337.214 168.571 C 337.103 156.189, 326.921 143.673, 322.969 151.059 M 508 161.475 C 503.875 162.174, 497.227 163.886, 493.227 165.280 C 485.497 167.975, 470.672 176.363, 465.215 181.130 C 463.409 182.709, 460.934 184.004, 459.715 184.010 C 455.430 184.029, 447.162 188.869, 438.984 196.147 C 434.440 200.191, 429.633 204.401, 428.302 205.503 L 425.883 207.505 428.842 214.776 C 434.330 228.261, 436.238 229.791, 450.925 232.486 L 460.880 234.313 468.027 233.133 C 476.956 231.658, 485.174 228.770, 500.500 221.720 C 507.100 218.685, 514.894 215.419, 517.819 214.463 L 523.138 212.725 527.296 213.971 C 531.421 215.207, 576.233 215.592, 578.148 214.408 C 578.617 214.119, 579 213.009, 579 211.941 C 579 210.873, 579.153 210, 579.340 210 C 579.527 210, 583.689 212.250, 588.590 214.999 C 593.490 217.748, 599.750 220.769, 602.500 221.711 C 609.246 224.023, 618.287 223.796, 624.250 221.166 L 629 219.071 629.175 215.786 C 629.681 206.290, 627.366 199.154, 621.531 192.219 C 612.273 181.217, 588.847 169.407, 565.676 164.061 C 547.910 159.962, 523.419 158.864, 508 161.475 M 505.500 185.130 C 500.550 186.173, 492.675 187.150, 488 187.301 C 478.511 187.608, 475.764 188.696, 473 193.240 C 471.959 194.952, 468.084 198.186, 464.389 200.426 C 456.135 205.431, 453.708 208.527, 453.590 214.203 L 453.500 218.500 460.331 218.798 C 469.015 219.176, 473.855 217.751, 493.103 209.148 C 501.571 205.363, 510.905 201.481, 513.845 200.521 L 519.190 198.776 518.697 196.638 C 518.425 195.462, 517.605 193.028, 516.874 191.229 L 515.545 187.957 516.773 185.992 C 519.042 182.359, 518.756 182.337, 505.500 185.130 M 227.052 185.170 C 219.311 187.392, 210.077 196.820, 208.468 204.144 C 207.638 207.925, 209.258 209.800, 216.806 213.795 C 228.697 220.089, 239.750 221.617, 247.236 218 C 252.723 215.349, 259.851 215.389, 264.440 218.097 C 269.973 221.362, 276.006 222.822, 292.908 224.988 C 311.308 227.346, 318.904 229.169, 324.850 232.653 L 329.200 235.202 328.816 247.351 L 328.433 259.500 326.315 264.155 L 324.197 268.810 316.877 273.950 C 312.852 276.777, 305.495 281.083, 300.529 283.519 C 295.563 285.954, 286.775 291.575, 281 296.008 C 259.269 312.691, 250.402 318, 244.270 318 C 238.561 318, 226.837 321.556, 218.185 325.912 C 208.065 331.007, 199.465 337.405, 188.624 347.904 C 177.722 358.463, 157.761 381.783, 158.284 383.351 C 158.494 383.983, 159.594 384.500, 160.727 384.500 C 162.142 384.500, 167.010 379.624, 176.268 368.932 C 194.885 347.433, 207.285 337.017, 223.228 329.488 C 232.142 325.278, 242.805 322.405, 244.229 323.829 C 245.539 325.139, 246.579 323.818, 218.486 356.534 C 193.718 385.377, 171.587 411.983, 159.684 427.227 L 152.870 435.954 153.185 439.128 C 153.591 443.220, 157.760 446.528, 161.370 445.622 C 163.051 445.200, 167.212 440.832, 173.639 432.742 C 196.843 403.534, 253.334 337.068, 255.407 336.536 C 263.207 334.537, 268.844 332.276, 275.493 328.480 C 279.888 325.971, 286.619 322.788, 290.448 321.406 L 297.412 318.894 298.956 320.911 C 302.987 326.177, 315.022 339.024, 319.500 342.842 C 329.805 351.630, 343.090 355.706, 354.467 353.572 C 361.355 352.280, 364.242 346.242, 360 342 L 358 340 349.968 340 C 336.990 340, 330.878 336.282, 316 319.340 L 306.999 309.090 310.110 303.795 C 315.781 294.144, 320.017 289.163, 326.473 284.557 C 330.681 281.554, 333.892 280, 335.890 280 C 338.685 280, 343 276.867, 343 274.837 C 343 274.405, 344.350 273.353, 346 272.500 L 349 270.949 349 251.113 L 349 231.278 354.838 230.748 C 358.049 230.457, 362.211 229.444, 364.088 228.498 C 368.343 226.351, 373.726 221.349, 375.571 217.827 L 376.972 215.154 373.909 212.577 C 368.920 208.379, 368.011 208.319, 348.010 210.864 L 341.520 211.690 332.631 203.836 C 317.533 190.495, 302.980 185.090, 286 186.516 C 281.325 186.909, 269.400 187.256, 259.500 187.287 L 241.500 187.344 236.715 185.672 C 231.354 183.799, 231.757 183.820, 227.052 185.170 M 589.228 195.553 C 588.003 196.411, 587.005 197.650, 587.011 198.307 C 587.022 199.628, 599.088 206.718, 605.770 209.330 C 610.243 211.079, 615.551 211.535, 616.352 210.240 C 617.083 209.057, 614.582 203.834, 611.577 200.269 C 608.759 196.925, 605.396 195.661, 596.478 194.593 C 592.778 194.150, 590.871 194.402, 589.228 195.553 M 555.323 198.640 C 552.765 199.204, 550.396 201.732, 551.448 202.774 C 552.376 203.692, 569.759 203.574, 570.690 202.644 C 573.159 200.174, 561.792 197.212, 555.323 198.640 M 236 199.878 C 236 202.298, 239.715 203.140, 252.859 203.703 L 266.889 204.303 269.476 202.607 C 270.899 201.675, 271.798 200.482, 271.473 199.956 C 270.727 198.749, 236 198.672, 236 199.878 M 649.427 199.765 C 645.863 202.206, 648.276 207.629, 653.978 209.991 C 658.495 211.862, 666.936 210.798, 669.136 208.080 C 670.895 205.908, 670.653 203.190, 668.573 201.765 C 667.983 201.360, 665.401 201.301, 662.837 201.632 C 659.398 202.076, 657.567 201.810, 655.864 200.617 C 653.386 198.882, 651.150 198.586, 649.427 199.765 M 167 211.500 L 167 215 171 215 L 175 215 175 211.500 L 175 208 171 208 L 167 208 167 211.500 M 112.105 221.394 C 106.670 226.898, 106.013 229.300, 109.573 230.666 C 110.682 231.092, 112.968 229.510, 116.838 225.640 L 122.485 219.993 121.385 218.246 C 119.459 215.188, 117.617 215.813, 112.105 221.394 M 644 219.500 L 644 223 648 223 L 652 223 652 219.500 L 652 216 648 216 L 644 216 644 219.500 M 112.528 242.250 C 112.302 242.938, 111.597 246.200, 110.960 249.500 C 110.322 252.800, 108.721 260, 107.402 265.500 C 102.336 286.617, 105.624 296.968, 119.323 303.025 C 124.607 305.362, 127 305.091, 127 302.156 C 127 300.835, 125.234 299.367, 121.250 297.375 C 117.769 295.635, 114.612 293.159, 113.250 291.102 L 111 287.704 111 281.269 C 111 277.729, 111.948 271.158, 113.106 266.667 C 116.538 253.359, 118.001 243.706, 116.804 242.264 C 115.459 240.643, 113.057 240.635, 112.528 242.250 M 190.336 248.567 C 189.670 250.301, 190.714 251.656, 194.033 253.366 C 195.289 254.012, 197.176 256.865, 198.423 260 C 199.957 263.854, 201.454 265.908, 203.427 266.863 C 204.976 267.613, 214.061 270.181, 223.615 272.570 C 233.169 274.960, 243.802 278.111, 247.243 279.574 C 255.359 283.023, 258.398 283.214, 258.813 280.302 L 259.125 278.105 254.861 275.929 C 248.509 272.689, 241.060 270.308, 225.500 266.544 C 206.194 261.875, 206.409 261.982, 203.614 255.662 C 202.304 252.700, 200.180 249.539, 198.894 248.638 C 195.906 246.546, 191.127 246.506, 190.336 248.567 M 489.570 264.678 C 488.499 267.470, 491 268.765, 502.500 271.370 C 535.578 278.864, 567.484 279.152, 588.101 272.144 L 593.500 270.309 593.500 267.905 L 593.500 265.500 591 265.621 C 589.625 265.687, 584.900 266.757, 580.500 267.998 L 572.500 270.254 556.210 270.746 C 537.825 271.300, 527.339 270.280, 506.592 265.922 C 490.296 262.498, 490.403 262.506, 489.570 264.678 M 437.409 282.507 C 436.459 286.291, 437.761 291.428, 440.265 293.773 C 443.237 296.557, 446.237 297.610, 456.711 299.543 C 461.545 300.435, 466.512 301.814, 467.750 302.606 L 470 304.046 470 314.555 C 470 321.385, 469.501 326.257, 468.576 328.473 L 467.152 331.881 463.734 332.522 C 457.885 333.619, 454.622 332.791, 453.803 330 C 453.400 328.625, 452.347 325.025, 451.465 322 C 449.432 315.034, 447.341 312.504, 441.319 309.724 L 436.500 307.500 426.500 307.527 L 416.500 307.555 411.623 309.777 C 408.940 311, 404.890 312.025, 402.623 312.056 C 394.129 312.173, 389.027 315.717, 389.031 321.500 L 389.032 323.500 397.766 326.254 C 408.458 329.626, 409.351 329.641, 411.829 326.490 C 412.915 325.110, 415.408 323.310, 417.370 322.490 C 421.708 320.677, 431.583 320.565, 434.992 322.290 L 437.484 323.551 439.166 329.785 C 440.091 333.213, 441.799 337.557, 442.962 339.438 C 446.958 345.905, 457.392 348.685, 467.318 345.929 C 471.874 344.664, 472.757 345.221, 475.779 351.272 C 480.988 361.702, 480.699 375.577, 474.532 411 C 472.664 421.725, 470.852 433.200, 470.505 436.500 C 469.437 446.634, 463.122 476.729, 458.902 491.797 C 453.030 512.767, 448.612 523.799, 438.667 542.333 C 434.226 550.609, 433.859 555.562, 437.385 559.661 L 439.770 562.434 445.905 562.264 C 449.279 562.170, 452.503 561.807, 453.070 561.457 C 453.637 561.106, 454.032 557.824, 453.949 554.160 L 453.798 547.500 458.824 536.956 C 468.496 516.666, 476.902 488.001, 483.443 453 C 484.831 445.575, 486.905 436.575, 488.052 433 C 495.208 410.699, 498.414 387.626, 498.405 358.500 L 498.398 335.500 496.652 326 C 493.084 306.581, 487.547 291.759, 480.807 283.582 L 477.854 280 457.946 280 L 438.038 280 437.409 282.507 M 806.533 322.726 C 806.156 324.225, 803.408 328.311, 800.424 331.806 C 794.851 338.334, 793.737 341.578, 796.678 342.707 C 797.805 343.139, 798.871 342.559, 799.928 340.939 C 800.792 339.613, 803.592 336.205, 806.148 333.366 C 812.392 326.432, 813.788 320, 809.049 320 C 807.888 320, 806.966 320.999, 806.533 322.726 M 119 321.418 C 119 324.756, 125.774 332.221, 130.385 333.963 L 133.270 335.053 135.635 333.504 C 139.382 331.048, 138.468 328.819, 132.213 325.149 C 126.948 322.061, 119 319.817, 119 321.418 M 529.713 327.621 C 528.678 328.655, 528.881 359.395, 530.019 374 C 532.078 400.429, 532.987 435.433, 532.025 451.243 C 530.594 474.760, 527.538 489.404, 520.335 507.267 C 518.390 512.089, 517.055 516.702, 517.368 517.517 C 517.681 518.333, 519.106 519, 520.534 519 L 523.130 519 526.526 511.650 C 535.317 492.623, 539.985 465.721, 539.999 434 C 540.003 426.575, 539.313 407.450, 538.468 391.500 C 537.622 375.550, 536.609 354.625, 536.215 345 L 535.500 327.500 532.963 327.204 C 531.567 327.041, 530.104 327.229, 529.713 327.621 M 765.229 345.669 C 763.560 346.341, 761 351.353, 761 353.950 C 761 356.271, 761.695 356.367, 768 354.915 C 773.305 353.693, 777 350.577, 777 347.326 L 777 345 771.750 345.079 C 768.862 345.122, 765.928 345.388, 765.229 345.669 M 580.157 348.750 C 579.111 350.752, 578.397 359.372, 576.986 387 C 575.220 421.610, 572.449 443.806, 568.499 455.002 C 566.831 459.731, 567.817 463, 570.913 463 C 573.819 463, 574.787 461.055, 577.422 449.925 C 580.855 435.422, 582.825 418.227, 583.999 392.500 C 584.551 380.400, 585.476 365.849, 586.053 360.164 L 587.103 349.829 585.929 348.414 C 584.310 346.464, 581.258 346.641, 580.157 348.750 M 211.500 482.652 C 200.930 484.900, 190.394 488.658, 181.500 493.352 C 177.100 495.674, 171.368 498.379, 168.763 499.365 C 162.889 501.585, 160.102 505.340, 159.300 512.113 L 158.686 517.297 160.534 518.649 C 163.016 520.463, 169.405 520.359, 173.109 518.443 C 174.765 517.587, 177.839 515.333, 179.941 513.434 C 184.541 509.279, 197.708 502.955, 208 499.959 L 215.500 497.775 230.500 497.276 L 245.500 496.778 254.339 498.438 C 281.794 503.594, 312.129 519.334, 338.940 542.333 C 341.932 544.900, 345.162 547, 346.118 547 C 348.949 547, 351.525 551.300, 355.998 563.494 C 360.597 576.034, 364.329 582.084, 368.931 584.464 C 372.874 586.503, 372.898 586.496, 374.440 582.750 C 381.166 566.413, 372.330 540.652, 358.186 535.365 C 355.609 534.401, 350.800 531.312, 347.500 528.500 C 319.449 504.597, 288.516 488.868, 257.873 482.928 C 245.565 480.542, 222.077 480.402, 211.500 482.652 M 137.564 494.272 C 130.753 501.380, 129.450 510.869, 134.203 518.750 L 136.163 522 141.129 522 L 146.095 522 148.298 524.393 C 149.509 525.709, 151.837 530.676, 153.471 535.429 L 156.442 544.073 158.525 544.596 C 159.670 544.883, 163.058 544.979, 166.053 544.809 L 171.500 544.500 171.500 542 L 171.500 539.500 166.792 538.959 C 164.203 538.661, 161.927 538.211, 161.735 537.959 C 161.543 537.706, 160.142 534.258, 158.622 530.295 C 157.102 526.332, 154.915 521.890, 153.761 520.424 C 151.330 517.333, 146.331 515, 142.139 515 C 138.855 515, 138 513.614, 138 508.286 C 138 504.359, 141.128 498.537, 144.089 496.952 C 146.620 495.598, 146.523 492.350, 143.909 490.951 L 141.818 489.832 137.564 494.272 M 232.001 526.250 L 232 534 248.234 534 L 264.467 534 275.201 544.700 L 285.934 555.400 289.584 555.400 C 293.846 555.400, 296 553.129, 296 548.635 L 296 545.653 287.054 536.893 C 282.134 532.075, 276.980 526.345, 275.600 524.159 C 271.987 518.435, 269.115 517.789, 249.006 518.174 L 232.001 518.500 232.001 526.250 M 389.984 581.681 C 385.081 595.248, 375.243 604.813, 363.836 607.104 L 358.351 608.206 351.941 606.563 L 345.531 604.921 344.304 606.599 C 341.181 610.870, 348.147 614.464, 359.500 614.439 L 366.500 614.423 373.275 611.252 C 381.999 607.170, 388.800 600.208, 393.649 590.396 L 397.386 582.835 396.341 581.168 C 394.504 578.236, 391.131 578.509, 389.984 581.681" stroke="none" fill="#080808" fill-rule="evenodd"/></svg>