<svg xmlns="http://www.w3.org/2000/svg" width="894" height="730" viewBox="0 0 894 730" version="1.1"><path d="M 418.500 3.037 C 352.389 4.866, 330.033 6.281, 291.500 11.075 C 234.208 18.204, 195.976 25.749, 169.249 35.202 C 136.538 46.772, 93.091 74.733, 77.538 94.223 C 68.815 105.154, 67.113 109.591, 65.497 125.615 C 62.736 152.976, 55.955 166.921, 39.703 178.656 C 19.048 193.570, 6.505 211.038, 2.476 230.500 C 0.272 241.144, -0.697 280.526, 0.889 295 C 2.580 310.439, 5.634 318.976, 18.543 344.355 C 36.603 379.859, 37.481 382.916, 39.121 416 C 40.853 450.928, 38.439 556.675, 34.875 602 C 32.908 627.006, 33.153 640.409, 35.725 648.500 C 40.910 664.815, 59.684 690.009, 74.453 700.472 C 90.702 711.983, 112.953 722.721, 126.131 725.411 C 138.701 727.976, 162.934 728.993, 211.605 728.996 C 280.266 729.002, 287.653 728.149, 349 713.140 C 362.475 709.843, 378.900 705.974, 385.500 704.542 C 392.100 703.111, 400.425 701.304, 404 700.528 C 410.300 699.160, 418.960 697.706, 427.787 696.534 C 436.018 695.441, 467.663 682.244, 503.500 664.959 C 545.543 644.682, 552.546 641.343, 569.500 633.494 C 579.400 628.911, 592.675 623.069, 599 620.512 C 634.257 606.257, 698.454 570.158, 722 551.348 C 732.151 543.238, 760.008 517.030, 769.496 506.663 C 782.834 492.089, 794.599 474.578, 802.674 457.280 C 812.772 435.649, 824.339 418.714, 840.433 402 C 868.757 372.584, 887.344 347.031, 891.711 331.500 C 893.362 325.630, 894.967 290.670, 894.765 265 C 894.655 251.043, 894.500 249.221, 894 256 C 893.655 260.675, 893.279 262.700, 893.165 260.500 C 892.854 254.494, 888.854 244.170, 883.833 236.412 C 875.800 224.002, 864.150 210.908, 838.980 186 C 807.603 154.950, 804.294 150.540, 788.085 118.169 C 775.963 93.961, 764.439 75.062, 751.092 57.500 C 740.395 43.424, 715.080 21.331, 699.861 12.789 C 690.579 7.580, 683.955 5.573, 670.500 3.895 C 659.465 2.520, 461.559 1.845, 418.500 3.037 M 464.868 21.465 C 464.612 21.721, 455.200 22.011, 443.951 22.110 C 397.792 22.515, 322.359 26.662, 289.500 30.600 C 265.562 33.470, 253.244 36.647, 255.875 39.273 C 256.786 40.182, 263.500 40.471, 281.802 40.390 C 320.577 40.217, 372.869 36.922, 407.500 32.470 C 435.269 28.900, 458.135 27.680, 485.500 28.308 C 523.436 29.178, 544.416 33.379, 582.500 47.733 C 604.226 55.922, 620.828 64.542, 649.680 82.616 C 682.657 103.275, 707.147 122, 701.187 122 C 699.758 122, 687.179 114.079, 676.232 106.286 C 637.426 78.662, 576.201 49.159, 539 40.159 C 517.720 35.010, 489.381 31.611, 475 32.483 C 471.425 32.700, 463.325 33.166, 457 33.518 C 441.878 34.360, 408.824 37.410, 387.207 39.958 C 348.572 44.512, 334.428 45.141, 276.500 44.878 C 209.839 44.577, 200.487 45.414, 178.500 53.655 C 159.840 60.649, 126.126 79.291, 109.511 91.803 C 91.635 105.264, 86.238 114.785, 84.463 136 C 83.215 150.918, 79.385 163.517, 73.251 172.886 C 69.635 178.410, 59.237 189.235, 43.365 204 C 32.201 214.386, 26.374 222.161, 23.973 229.874 C 20.485 241.078, 18.705 258.763, 19.380 275.500 C 20.341 299.317, 21.318 302.429, 39.032 338.125 C 50.066 360.360, 53.383 368.570, 56.148 380.500 C 56.942 383.928, 57.442 407.188, 57.737 454.500 C 58.150 520.653, 57.308 561.410, 54.928 590.500 C 52.357 621.910, 52.171 626.146, 53.081 632.568 C 54.156 640.160, 59.583 651.815, 66.700 661.815 C 72.359 669.767, 85.985 683.655, 92.341 687.950 C 98.950 692.416, 116.588 701.147, 127.501 705.355 C 145.723 712.382, 166.146 714.541, 205 713.546 C 260.745 712.120, 279.552 709.485, 334.339 695.423 C 370.608 686.114, 399.941 679.196, 414.500 676.518 C 437.926 672.208, 452.475 666.336, 515 635.960 C 552.623 617.681, 577.982 606.001, 593.450 599.828 C 618.697 589.752, 678.791 556.742, 701.869 540.274 C 705.456 537.714, 712.691 531.805, 717.946 527.142 C 756.641 492.809, 767.513 479.645, 783.576 447.681 C 796.155 422.647, 804.144 410.338, 816.670 396.693 C 824.179 388.512, 823.982 387.988, 814.339 390.500 C 803.714 393.267, 802.040 391.993, 809.926 387.141 C 812.635 385.474, 818.147 382.708, 822.176 380.996 C 826.204 379.283, 831.525 376.583, 834 374.995 C 844.972 367.957, 859.880 349.378, 867.697 333 C 881.525 304.032, 882.620 277.825, 870.912 256.088 C 860.659 237.052, 838.824 211.305, 824.399 201.239 C 820.624 198.606, 809.751 195.560, 797 193.564 C 788.866 192.290, 759.813 189, 756.704 189 C 756.133 189, 755.947 188.719, 756.290 188.377 C 756.633 188.034, 766.495 187.420, 778.207 187.013 C 798.661 186.303, 803 185.767, 803 183.954 C 803 183.496, 801.126 180.957, 798.835 178.311 C 791.793 170.179, 786.082 160.503, 772.973 134.498 C 750.270 89.460, 739.950 73.875, 720.222 54.836 C 702.252 37.494, 686.397 27.609, 671.679 24.569 C 667.461 23.697, 654.670 22.548, 643.255 22.014 C 622.696 21.053, 465.763 20.570, 464.868 21.465 M 439 57.001 C 433.775 57.473, 423.875 58.824, 417 60.003 C 389.117 64.784, 380.739 65.970, 364 67.501 C 332.860 70.349, 283.709 69.143, 236.500 64.372 C 216.613 62.363, 194.021 62.095, 188.292 63.801 C 183.680 65.175, 176.545 70.220, 174.239 73.738 C 172.921 75.749, 172.949 76.043, 174.517 76.645 C 175.626 77.071, 179.363 75.710, 184.786 72.907 C 193.122 68.598, 193.557 68.492, 204.288 68.158 C 210.325 67.970, 222.742 68.532, 231.882 69.408 C 241.022 70.283, 253.675 71.477, 260 72.062 C 278.658 73.785, 335.361 74.403, 355 73.097 C 375.139 71.758, 392.983 69.693, 408 66.964 C 448.910 59.531, 489.337 60.026, 535.500 68.526 C 559.232 72.895, 576.896 78.921, 601.500 91.040 C 625.368 102.796, 638.181 111.700, 657.560 130 C 668.134 139.984, 675.609 145.724, 676.664 144.669 C 678.602 142.731, 661.668 123.890, 648.500 113.333 C 629.313 97.951, 609.071 86.523, 582.500 76.069 C 559.020 66.832, 548.819 64.289, 520.092 60.509 C 493.185 56.968, 456.798 55.394, 439 57.001 M 451.500 84.704 C 444.488 85.186, 436 86.982, 436 87.983 C 436 89.779, 445.289 90.200, 469.903 89.522 C 496.903 88.779, 520.337 89.839, 538.500 92.626 C 558.179 95.645, 586.529 105.003, 599.500 112.761 C 608.959 118.418, 623.775 129.790, 632.500 138.090 C 642.480 147.584, 649.031 152.369, 650.306 151.094 C 654.214 147.186, 620.947 117.183, 600 105.724 C 586.322 98.242, 561.329 90.212, 543.500 87.571 C 524.360 84.736, 473.913 83.164, 451.500 84.704 M 446.693 98.969 C 440.118 105.119, 434.979 113.312, 433.185 120.500 C 431.717 126.389, 431.006 138.980, 431.916 143 L 432.708 146.500 433.436 143.500 C 433.836 141.850, 435.024 136.900, 436.077 132.500 C 438.465 122.515, 443.527 112.160, 449.519 105 C 454.689 98.824, 457.228 94.561, 456.293 93.627 C 454.828 92.161, 452.711 93.338, 446.693 98.969 M 218.052 95.596 C 210.705 97.571, 195.397 104.917, 187.007 110.495 C 178.536 116.127, 170.388 124.888, 167.473 131.500 C 164.739 137.701, 163.124 150.455, 165.158 149.787 C 165.896 149.544, 167.903 146.106, 169.617 142.146 C 176.401 126.476, 181.825 120.854, 200.342 110.297 C 212.282 103.489, 220.353 100.477, 229.109 99.562 C 235.988 98.843, 254.870 100.008, 278 102.580 C 290.285 103.946, 295.420 104.740, 314.747 108.266 C 319.689 109.167, 321.256 109.139, 322.247 108.132 C 325.503 104.821, 314.887 101.440, 292 98.498 C 257.271 94.034, 228.120 92.890, 218.052 95.596 M 299 123.611 C 299 125.046, 300.587 129.434, 302.526 133.361 C 307.341 143.108, 308.953 149.619, 309.681 162.250 C 310.021 168.162, 310.637 173, 311.049 173 C 311.461 173, 312.124 167.358, 312.522 160.461 C 313.547 142.679, 310.832 130.613, 304.259 123.750 C 300.935 120.278, 299 120.227, 299 123.611 M 499.500 147.473 C 489.620 149.298, 481.188 152.305, 468.500 158.528 C 448.867 168.157, 427.390 183.501, 421.356 192.208 C 418.824 195.862, 418.534 197.074, 418.720 203.231 C 418.970 211.510, 420.797 214.965, 428.322 221.388 C 433.822 226.084, 450.880 238, 452.101 238 C 452.501 238, 460.854 234.125, 470.664 229.389 C 491.884 219.144, 502.887 214.809, 515.869 211.577 C 533.491 207.191, 539.658 206.498, 560.500 206.559 C 578.503 206.613, 582.252 206.937, 598.040 209.809 C 623.934 214.520, 631.829 214.138, 639.978 207.785 C 649.078 200.691, 647.682 192.987, 634.849 179.478 C 616.533 160.196, 594.068 150.699, 558.144 147.051 C 543.939 145.609, 508.202 145.866, 499.500 147.473 M 501.654 167.983 C 478.291 174.279, 452.045 189, 444.757 199.894 C 442.443 203.353, 442.538 204.297, 445.560 207.889 C 450.695 213.992, 455.227 213.190, 479 201.973 C 493.836 194.973, 505.724 191.012, 511.980 190.985 C 518.382 190.957, 518.600 190.405, 516.582 179.326 C 515.597 173.922, 514.456 168.825, 514.045 168 C 512.984 165.868, 509.519 165.863, 501.654 167.983 M 204.500 168.969 C 191.332 170.853, 179.697 177.664, 171.670 188.188 C 168.178 192.767, 168.281 196.111, 172.047 200.400 C 177.115 206.173, 187.299 208.430, 224.500 212.025 C 259.063 215.364, 279.477 219.368, 292.232 225.307 C 302.918 230.284, 303.520 231.230, 303.401 242.860 C 303.282 254.539, 301.726 262.283, 298.525 267.132 C 296.912 269.575, 290.809 274.274, 279.874 281.491 C 261.031 293.927, 253.078 300.059, 240.176 312.099 C 230.463 321.163, 222.141 326.345, 215.751 327.309 C 210.029 328.172, 199.772 333.645, 193.833 339.006 C 185.005 346.973, 188.317 347, 205.023 339.098 C 222.960 330.614, 237.087 325.641, 240.883 326.474 C 242.448 326.818, 245.258 329.012, 247.372 331.540 C 251.483 336.459, 253.272 336.916, 257 334 C 258.375 332.924, 260.296 332.034, 261.270 332.022 C 264.713 331.979, 271.551 337.436, 287.433 352.902 C 306.339 371.313, 309.147 373, 320.884 373 C 343.676 373, 358.881 358.693, 346.633 348.772 C 343.567 346.288, 341.041 346.588, 335.516 350.092 C 332.834 351.793, 329.259 353.406, 327.570 353.677 C 319.851 354.917, 305.974 345.693, 294.684 331.818 C 284.036 318.732, 282.149 314.077, 284.555 306.834 C 286.272 301.665, 293.623 294, 296.864 294 C 299.638 294, 310.377 286.537, 314.593 281.678 C 320.889 274.422, 322.090 270.325, 323.001 253 C 323.449 244.475, 324.303 236.245, 324.898 234.712 C 326.400 230.840, 330.456 227.316, 337.500 223.761 C 350.561 217.172, 356.103 211.929, 354.054 208.101 C 352.693 205.557, 344.409 203, 337.529 203 C 331.456 203, 322.504 200.808, 316.900 197.949 C 314.678 196.815, 309.306 193.252, 304.961 190.031 C 289.482 178.554, 277.275 173.117, 261 170.449 C 249.986 168.644, 213.462 167.687, 204.500 168.969 M 597.064 182.939 C 593.778 185.019, 601.117 189.640, 612.884 192.901 C 616.783 193.981, 620.429 195.147, 620.986 195.491 C 623.408 196.989, 621.669 193.597, 617.941 189.551 C 612.331 183.466, 601.602 180.068, 597.064 182.939 M 213.250 187.723 C 211.463 187.945, 210 188.548, 210 189.063 C 210 190.245, 235.685 190.319, 236.414 189.140 C 237.398 187.547, 222.173 186.616, 213.250 187.723 M 659.550 188.848 C 660.072 189.315, 665.337 191.615, 671.250 193.958 C 677.163 196.302, 682 198.590, 682 199.043 C 682 200.032, 680.433 200.519, 672.269 202.069 C 663.420 203.750, 665.340 205.391, 675.391 204.737 C 684.323 204.155, 693.657 201.142, 696.601 197.889 C 698.429 195.868, 698.429 195.787, 696.605 194.453 C 692.681 191.584, 656.483 186.109, 659.550 188.848 M 140.500 194.108 C 138.300 194.592, 124.800 195.407, 110.500 195.921 C 96.200 196.435, 82.962 197.328, 81.082 197.906 C 76.573 199.292, 71.721 202.573, 59.340 212.607 C 53.702 217.176, 47.295 221.829, 45.102 222.948 C 42.910 224.066, 40.014 226.448, 38.667 228.241 C 34.903 233.250, 29.425 244.790, 26.963 252.897 C 25.008 259.331, 24.804 261.724, 25.259 272.854 C 25.814 286.448, 29.636 306.924, 33.143 315.099 C 36.862 323.767, 47.707 331.884, 66 339.694 C 78.558 345.054, 86.380 347.452, 88.569 346.612 C 90.114 346.019, 90.162 345.738, 88.928 344.531 C 88.142 343.764, 78.886 338.859, 68.358 333.632 C 57.830 328.405, 47.645 322.749, 45.725 321.063 C 40.952 316.872, 37.819 309.776, 34.091 294.709 C 28.558 272.349, 29.019 259.809, 35.901 245.457 C 40.532 235.798, 44.334 231.506, 53.714 225.348 C 58.546 222.175, 65.691 216.570, 69.590 212.892 C 82.104 201.088, 80.035 201.580, 119.598 201 C 154.667 200.486, 157 200.200, 157 196.413 C 157 193.222, 149.382 192.158, 140.500 194.108 M 739.500 197.764 C 740.050 198.289, 747.700 199.254, 756.500 199.910 C 784.385 201.987, 809.115 205.185, 814.417 207.401 C 821.518 210.368, 839.996 235.068, 844.041 247 C 848.311 259.594, 847.730 300.683, 842.956 323.837 C 839.395 341.104, 832.550 349.158, 812.407 359.779 C 797.187 367.804, 790.776 371.829, 791.458 372.933 C 792.598 374.777, 808.439 369.329, 822.442 362.278 C 830.870 358.033, 839.648 349.465, 843.370 341.849 C 849.421 329.467, 852.726 299.891, 851.636 267.859 C 850.860 245.052, 849.511 239.884, 841.010 227.175 C 830.513 211.483, 818.238 201.741, 805.409 198.920 C 799.051 197.522, 738.126 196.454, 739.500 197.764 M 656.529 210.953 C 655.903 211.965, 665.643 219, 667.669 219 C 668.327 219, 669.178 218.014, 669.561 216.809 C 670.582 213.590, 666.070 210, 661.003 210 C 658.866 210, 656.853 210.429, 656.529 210.953 M 544.500 216.208 C 539.293 219.194, 538.830 222.775, 542.837 229.054 C 549.185 239.002, 567.296 253.236, 581.054 259.091 C 603.459 268.625, 635.165 268.008, 668.204 257.394 C 686.934 251.378, 708.190 242.323, 713.697 238.015 C 717.636 234.933, 726.973 233.672, 741.271 234.291 C 762.047 235.190, 772.688 238.783, 781.922 248.018 C 794.162 260.257, 805.006 281.834, 804.997 293.932 C 804.993 298.954, 801.940 310.647, 797.040 324.412 C 791.686 339.452, 791.866 346.251, 797.691 348.905 C 804.880 352.181, 815.175 337.410, 821.200 315.175 C 824.225 304.008, 824.246 285.324, 821.244 274.830 C 815.277 253.970, 800.534 233.496, 784.500 223.803 C 773.295 217.029, 767.718 215.741, 747.500 215.256 C 720.374 214.605, 709.155 216.643, 690 225.699 C 662.894 238.514, 635.542 246.996, 621.312 246.999 C 603.219 247.002, 578.940 237.115, 564.230 223.755 C 560.006 219.919, 555.498 216.379, 554.210 215.890 C 551.039 214.684, 546.922 214.819, 544.500 216.208 M 83 223.931 C 68.488 228.742, 62.021 233.410, 59.546 240.861 C 54.755 255.287, 51.574 286.178, 53.974 294.969 C 56.115 302.805, 75.141 319.885, 79.044 317.473 C 80.931 316.307, 79.866 314.753, 70.630 305.196 C 58.230 292.364, 57.562 290.971, 58.345 279.535 C 58.685 274.566, 59.665 266.450, 60.523 261.500 C 63.676 243.308, 65.663 240.327, 79.500 233.030 C 89.011 228.015, 94.255 224.222, 93.460 222.935 C 92.606 221.554, 89.187 221.880, 83 223.931 M 104.829 239.567 C 90.780 242.109, 79.802 248.762, 76.334 256.836 C 75.202 259.472, 75.138 260.889, 76.031 263.593 C 78.293 270.448, 83.240 270.657, 96.020 264.437 C 107.950 258.631, 117.599 256.556, 129.202 257.304 C 143.386 258.217, 148.787 261.698, 154.951 273.899 C 156.508 276.980, 158.618 280.254, 159.641 281.175 C 166.230 287.110, 198.178 285.535, 211.760 278.605 C 220.676 274.056, 225.941 265.997, 223.873 260.064 C 221.416 253.016, 216.857 253.263, 197.129 261.513 C 192.404 263.489, 189.865 264.010, 187.300 263.528 C 185.398 263.172, 178.330 259.129, 171.594 254.544 C 155.942 243.893, 150.546 241.199, 141.313 239.433 C 132.048 237.660, 115.023 237.723, 104.829 239.567 M 0.425 270 C 0.425 281.825, 0.569 286.663, 0.746 280.750 C 0.923 274.837, 0.923 265.163, 0.746 259.250 C 0.569 253.338, 0.425 258.175, 0.425 270 M 725.451 252.647 C 724.102 254.103, 722.505 257.141, 721.903 259.397 C 719.934 266.780, 709.850 274.163, 683.500 287.515 C 650.847 304.062, 610.342 320.117, 565.455 334.307 C 457.772 368.347, 416.628 378.251, 361.368 383.436 C 300.622 389.135, 263.652 387.474, 228.945 377.484 C 199.801 369.096, 170.351 354.249, 157.400 341.415 C 149.606 333.692, 144.436 321.910, 142.081 306.500 C 138.775 284.872, 136.210 278, 131.443 278 C 130.021 278, 128.160 278.697, 127.309 279.549 C 125.601 281.256, 122.006 291.930, 121.990 295.339 C 121.976 298.415, 117.694 307.135, 115.035 309.500 C 104.526 318.849, 98.055 365.035, 99.343 421.500 C 100.307 463.773, 102.741 480.742, 110.469 499.066 C 127.146 538.610, 147.716 551.869, 207.301 561.479 C 243.600 567.333, 273.263 569.254, 327 569.229 C 412.765 569.190, 461.972 563.147, 517.500 545.836 C 545.475 537.114, 563.503 528.488, 588.219 511.998 C 627.926 485.506, 655.850 462.015, 674.917 439.065 C 684.837 427.125, 700.356 406.374, 710.488 391.500 C 724.626 370.747, 730.031 363.269, 736.497 355.516 L 743.156 347.532 742.501 341.009 C 741.965 335.674, 742.238 333.438, 744.001 328.728 C 748.150 317.637, 752.594 315.006, 767.193 314.994 C 785.740 314.980, 793.798 310.813, 788.250 304.106 C 787.286 302.941, 781.240 300.004, 774.794 297.570 C 761.052 292.380, 753.408 288.691, 750.151 285.675 C 747.118 282.866, 743.412 275.553, 741.891 269.373 C 740.235 262.645, 736.611 254.611, 734.099 252.099 C 731.275 249.275, 728.408 249.457, 725.451 252.647 M 493.595 287.168 C 490.214 291.995, 491.885 299.859, 497.134 303.819 C 500.021 305.998, 513.022 307.850, 536.546 309.434 C 549.171 310.284, 562.087 311.253, 565.250 311.588 C 570.890 312.185, 571 312.148, 571 309.676 C 571 305.398, 566.183 304.560, 532.500 302.979 C 501.533 301.526, 497.626 300.111, 498.200 290.560 C 498.440 286.560, 498.170 285.496, 496.845 285.227 C 495.935 285.042, 494.473 285.915, 493.595 287.168 M 436.758 287.327 C 429.803 289.507, 427.468 293.268, 430.061 298.114 C 431.458 300.725, 434.407 301.775, 447 304.147 C 463.740 307.300, 468 310.228, 468 318.579 C 468 323.571, 465.906 327.913, 460.638 333.845 C 453.879 341.454, 453.393 345.748, 458.589 351.923 C 461.658 355.571, 462.751 355.678, 468.253 352.871 C 483.383 345.152, 487 338.529, 487 318.545 C 487 308.204, 485.179 300.853, 481.628 296.857 C 477.968 292.737, 471.719 289.010, 465.856 287.449 C 459.435 285.740, 442.052 285.667, 436.758 287.327 M 712.894 297.056 C 708.710 298.696, 696.732 304.257, 686.274 309.416 C 654.203 325.237, 646.474 330.367, 643.206 338 C 641.500 341.985, 640.295 370.651, 641.745 372.740 C 642.869 374.360, 653.021 370.101, 679.110 357.064 C 701.368 345.941, 708.451 341.449, 715.315 334.101 C 722.728 326.166, 729 310.761, 729 300.490 C 729 293.062, 725.171 292.246, 712.894 297.056 M 403.949 319.064 C 387.589 320.481, 376 325.699, 376 331.649 C 376 336.213, 380.503 337.279, 401.451 337.674 C 422.338 338.068, 426.495 338.769, 429.989 342.489 C 434.799 347.609, 440.222 344.211, 442.186 334.847 C 443.202 330.006, 443.111 328.901, 441.419 325.453 C 439.899 322.357, 438.668 321.312, 435.500 320.424 C 429.921 318.862, 414.133 318.181, 403.949 319.064 M 612 342.652 C 608.975 343.461, 597.275 346.993, 586 350.501 C 574.725 354.009, 555.496 359.831, 543.269 363.440 C 517.516 371.040, 513.357 372.542, 510.142 375.402 C 508.007 377.302, 507.839 378.067, 508.370 383.500 C 509.014 390.092, 513.155 407.041, 515.483 412.613 C 517.248 416.837, 514.821 417.366, 541.553 406.928 C 563.939 398.187, 577.580 393.568, 584.121 392.514 C 586.529 392.126, 590.421 390.702, 592.768 389.351 C 602.028 384.021, 618.300 364.613, 621.643 354.911 C 623.488 349.556, 621.648 340.871, 618.715 341.091 C 618.047 341.141, 615.025 341.843, 612 342.652 M 126.046 347.242 C 121.053 355.986, 120.674 362.386, 125.501 356.461 C 127.832 353.599, 131 346.030, 131 343.322 C 131 340.556, 128.929 342.195, 126.046 347.242 M 145.745 366.685 C 140.488 375.176, 133 397.457, 133 404.611 C 133 408.474, 133.501 409.665, 136.175 412.164 C 137.922 413.795, 140.608 415.780, 142.146 416.575 C 144.751 417.923, 145.039 417.868, 146.394 415.760 C 148.374 412.679, 149.654 405.001, 151.033 387.922 C 152.222 373.201, 151.575 364.025, 149.294 363.265 C 148.642 363.047, 147.045 364.586, 145.745 366.685 M 684 379.548 C 643.323 397.039, 638.500 401.769, 638.500 424.169 C 638.500 433.027, 638.704 434.056, 640.924 436.419 C 642.258 437.839, 644.344 439, 645.560 439 C 649.541 439, 665.211 420.463, 684.447 393 C 693.606 379.923, 696.577 374.989, 695.276 375.016 C 694.849 375.025, 689.775 377.064, 684 379.548 M 173.767 382.766 C 170.665 386.319, 169.723 391.970, 170.244 403.911 C 171.112 423.796, 174.467 428.984, 188.477 432.106 C 193.312 433.183, 197.466 433.867, 197.708 433.625 C 197.950 433.384, 198.606 430.106, 199.166 426.343 C 199.726 422.579, 201.046 415.450, 202.099 410.500 C 203.152 405.550, 204.011 400.309, 204.007 398.854 C 203.997 395.172, 198.381 390.503, 188.521 385.979 C 177.851 381.083, 175.654 380.604, 173.767 382.766 M 480.500 383.668 C 479.400 383.907, 467.025 386.352, 453 389.100 C 406.347 398.242, 400.107 400.230, 396.793 407.009 C 394.962 410.753, 393.239 429.832, 394.337 434.205 C 395.260 437.884, 398.990 439, 410.361 439 C 432.272 439, 475.939 430.663, 489.042 423.978 C 495.289 420.792, 495.382 420.003, 491.419 403.789 C 488.164 390.467, 485.151 382.830, 483.265 383.116 C 482.844 383.180, 481.600 383.428, 480.500 383.668 M 227.531 404.561 C 224.763 407.548, 220.909 419.232, 220.233 426.688 L 219.763 431.875 225.131 433.405 C 233.471 435.781, 241.996 436.891, 261.500 438.140 C 281.107 439.395, 287.015 438.710, 289.029 434.946 C 289.614 433.853, 290.507 429.320, 291.015 424.872 C 292.307 413.537, 291.027 410.636, 283.821 408.575 C 276.212 406.397, 244.741 402.009, 236.702 402.004 C 230.690 402, 229.630 402.296, 227.531 404.561 M 337.500 405.594 C 325.696 407.002, 315.999 408.625, 315.355 409.299 C 314.003 410.718, 309.993 427.480, 310.015 431.624 C 310.036 435.567, 311.066 436.872, 315.064 438.018 C 319.643 439.332, 362.483 439.271, 367.259 437.945 C 373.336 436.257, 374.333 433.709, 374.333 419.866 C 374.333 408.982, 374.139 407.695, 372.206 405.761 C 369.128 402.684, 362.176 402.651, 337.500 405.594 M 608 416.968 C 606.625 417.406, 599.875 420.330, 593 423.464 C 571.095 433.452, 552.132 440.799, 538.817 444.456 C 527.824 447.476, 524.049 453.241, 526.005 464.027 C 528.215 476.214, 538.992 501.999, 544.280 507.750 C 548.473 512.311, 551.446 511.051, 578 493.457 C 615.828 468.395, 628 458.977, 628 454.772 C 628 453.781, 626.443 450.614, 624.540 447.735 C 620.616 441.796, 618.006 432.960, 617.986 425.540 C 617.965 417.507, 617.265 415.986, 613.633 416.086 C 611.910 416.133, 609.375 416.530, 608 416.968 M 476 464.328 C 462.525 468.877, 444.802 474.350, 436.617 476.489 C 421.251 480.505, 416.430 482.780, 414.279 487.030 C 412.752 490.048, 412.582 520.781, 414.030 532 C 415.107 540.344, 417.165 543.999, 421.427 545.139 C 429.216 547.222, 470.200 539.186, 502 529.340 C 522.624 522.955, 524.416 521.189, 520.922 510.701 C 519.786 507.290, 516.916 500.888, 514.544 496.473 C 508.586 485.385, 506.955 480.089, 505.927 468.502 C 505.257 460.938, 504.624 458.198, 503.329 457.252 C 502.388 456.563, 501.366 456.013, 501.059 456.028 C 500.751 456.044, 489.475 459.778, 476 464.328 M 124.022 473.215 C 123.988 475.843, 126.607 483.032, 133.779 500 C 140.863 516.758, 141.704 518.301, 143.237 517.354 C 146.155 515.550, 141.441 501.070, 132.865 485.500 C 126.878 474.631, 124.055 470.709, 124.022 473.215 M 161 490.395 C 161 491.712, 161.862 495.649, 162.916 499.145 C 163.969 502.640, 165.134 507.843, 165.504 510.707 C 166.112 515.417, 165.933 516.158, 163.633 518.457 C 161.656 520.435, 160.081 521, 156.545 521 C 154.045 521, 152 521.410, 152 521.911 C 152 523.688, 158.050 527.875, 163.734 530.033 C 173.347 533.681, 189.901 537.499, 191.065 536.335 C 191.768 535.632, 191.476 533.746, 190.142 530.361 C 186.234 520.445, 176.629 502.076, 172.388 496.405 C 166.382 488.376, 161 485.535, 161 490.395 M 383 489.125 C 379.506 490.521, 364.380 492.671, 345.344 494.479 C 324.802 496.429, 323.193 496.775, 321.306 499.656 C 319.448 502.491, 319.754 505.553, 324.131 527.945 C 327.292 544.118, 328.750 548.265, 331.713 549.507 C 337.991 552.140, 383.317 551.635, 389.397 548.865 C 393.660 546.923, 394.327 542.181, 393.669 518.500 C 392.858 489.303, 391.553 485.709, 383 489.125 M 199 497.852 C 199 498.871, 201.448 504.692, 204.440 510.789 C 210.691 523.526, 214.253 534.145, 213.406 537.520 C 212.646 540.547, 215.850 542.269, 226.245 544.416 C 236.241 546.480, 240.882 546.470, 241.683 544.383 C 242.024 543.494, 240.138 536.406, 237.490 528.633 C 230.032 506.734, 226.177 500.007, 221.076 499.993 C 219.659 499.989, 214.759 499.089, 210.187 497.993 C 199.954 495.540, 199 495.528, 199 497.852 M 260.658 502.009 C 252.765 503.017, 251.274 504.594, 252.906 510.207 C 254.848 516.882, 266.484 540.076, 269.974 544.227 C 274.176 549.225, 280.358 551, 293.559 551 C 306.013 551, 306.556 550.590, 305.644 541.864 C 304.736 533.184, 300.171 513.340, 297.810 507.812 C 295.944 503.444, 295.469 503.052, 290.854 502.062 C 285.361 500.884, 269.678 500.856, 260.658 502.009 M 640 522.887 C 634.775 525.005, 619.700 531.808, 606.500 538.005 C 551.359 563.892, 523.248 575.913, 486.500 589.321 C 439.688 606.400, 429.074 608.422, 370 611.512 C 295.272 615.422, 283.641 615.823, 252 615.585 C 219.556 615.341, 218.185 615.251, 208.500 612.730 C 185.001 606.612, 169.014 598.339, 151 582.977 C 143.023 576.173, 137.742 572.858, 136.638 573.962 C 135.402 575.198, 137.545 578.372, 144.991 586.331 C 160.105 602.489, 184.836 614.201, 213.427 618.741 C 228.996 621.214, 305.768 621.190, 348 618.700 C 407.057 615.218, 427.506 613.067, 446.500 608.340 C 484.259 598.944, 555.881 570.106, 612.500 541.504 C 635.411 529.930, 652 520.651, 652 519.410 C 652 518.390, 648.819 519.311, 640 522.887 M 692.459 522.848 C 688.586 524.377, 676.886 530.053, 666.459 535.462 C 608.980 565.279, 583.647 577.215, 548 591.277 C 517.099 603.466, 504.139 606.998, 444 619.619 C 355.519 638.187, 331.669 641.002, 236.500 644.107 C 194.543 645.476, 174.718 644.914, 163.583 642.040 C 150.197 638.585, 116.363 619.225, 105.842 609 C 100.032 603.353, 97.144 597.078, 96.900 589.568 C 96.629 581.203, 95.321 582.055, 94.702 591 C 93.384 610.057, 94.169 611.139, 123 629.992 C 131.210 635.360, 144.755 642.463, 150.778 644.557 C 163.310 648.916, 169.911 649.294, 221.500 648.614 C 247.900 648.266, 270.625 647.801, 272 647.580 C 273.375 647.359, 281.925 646.891, 291 646.540 C 344.145 644.484, 393.502 637.047, 477 618.513 C 510.247 611.133, 552.715 596.714, 589 580.485 C 637.997 558.571, 690.060 531.200, 698.481 522.928 C 702.142 519.331, 701.394 519.321, 692.459 522.848 M 277 591.051 C 283.070 592.131, 363.975 592.085, 366.500 591 C 367.650 590.506, 348.096 590.164, 320.500 590.195 C 293.194 590.227, 274.440 590.596, 277 591.051" stroke="none" fill="#070707" fill-rule="evenodd"/><path d="M 0.144 124.750 C 0.223 193.363, 0.604 245.885, 0.992 241.467 C 1.998 229.997, 3.662 223.640, 8.102 214.310 C 14.434 201.003, 24.530 189.612, 39.703 178.656 C 55.955 166.921, 62.736 152.976, 65.497 125.615 C 67.113 109.591, 68.815 105.154, 77.538 94.223 C 93.091 74.733, 136.538 46.772, 169.249 35.202 C 195.962 25.754, 234.106 18.224, 291.500 11.070 C 332.027 6.018, 352.378 4.811, 429 2.916 C 484.506 1.544, 657.081 2.252, 670.500 3.907 C 683.925 5.563, 690.567 7.573, 699.861 12.789 C 715.080 21.331, 740.395 43.424, 751.092 57.500 C 764.439 75.062, 775.963 93.961, 788.085 118.169 C 804.294 150.540, 807.603 154.950, 838.980 186 C 864.150 210.908, 875.800 224.002, 883.833 236.412 C 888.876 244.205, 892.868 254.534, 893.141 260.500 C 893.241 262.700, 893.650 260.225, 894.050 255 C 894.449 249.775, 894.827 190.263, 894.888 122.750 L 895 0 447.500 0 L 0 0 0.144 124.750 M 0.485 125 C 0.485 193.475, 0.604 221.488, 0.750 187.250 C 0.896 153.013, 0.896 96.988, 0.750 62.750 C 0.604 28.513, 0.485 56.525, 0.485 125 M 464.868 21.465 C 464.612 21.721, 455.200 22.011, 443.951 22.110 C 397.792 22.515, 322.359 26.662, 289.500 30.600 C 265.562 33.470, 253.244 36.647, 255.875 39.273 C 256.786 40.182, 263.500 40.471, 281.802 40.390 C 320.577 40.217, 372.869 36.922, 407.500 32.470 C 435.269 28.900, 458.135 27.680, 485.500 28.308 C 523.436 29.178, 544.416 33.379, 582.500 47.733 C 604.226 55.922, 620.828 64.542, 649.680 82.616 C 682.657 103.275, 707.147 122, 701.187 122 C 699.758 122, 687.179 114.079, 676.232 106.286 C 637.426 78.662, 576.201 49.159, 539 40.159 C 517.720 35.010, 489.381 31.611, 475 32.483 C 471.425 32.700, 463.325 33.166, 457 33.518 C 441.878 34.360, 408.824 37.410, 387.207 39.958 C 348.572 44.512, 334.428 45.141, 276.500 44.878 C 209.839 44.577, 200.487 45.414, 178.500 53.655 C 159.840 60.649, 126.126 79.291, 109.511 91.803 C 91.635 105.264, 86.238 114.785, 84.463 136 C 83.215 150.918, 79.385 163.517, 73.251 172.886 C 69.635 178.410, 59.237 189.235, 43.365 204 C 32.201 214.386, 26.374 222.161, 23.973 229.874 C 20.485 241.078, 18.705 258.763, 19.380 275.500 C 20.341 299.317, 21.318 302.429, 39.032 338.125 C 50.066 360.360, 53.383 368.570, 56.148 380.500 C 56.942 383.928, 57.442 407.188, 57.737 454.500 C 58.150 520.653, 57.308 561.410, 54.928 590.500 C 52.357 621.910, 52.171 626.146, 53.081 632.568 C 54.156 640.160, 59.583 651.815, 66.700 661.815 C 72.359 669.767, 85.985 683.655, 92.341 687.950 C 98.950 692.416, 116.588 701.147, 127.501 705.355 C 145.723 712.382, 166.146 714.541, 205 713.546 C 260.745 712.120, 279.552 709.485, 334.339 695.423 C 370.608 686.114, 399.941 679.196, 414.500 676.518 C 437.926 672.208, 452.475 666.336, 515 635.960 C 552.623 617.681, 577.982 606.001, 593.450 599.828 C 618.697 589.752, 678.791 556.742, 701.869 540.274 C 705.456 537.714, 712.691 531.805, 717.946 527.142 C 756.641 492.809, 767.513 479.645, 783.576 447.681 C 796.155 422.647, 804.144 410.338, 816.670 396.693 C 824.179 388.512, 823.982 387.988, 814.339 390.500 C 803.714 393.267, 802.040 391.993, 809.926 387.141 C 812.635 385.474, 818.147 382.708, 822.176 380.996 C 826.204 379.283, 831.525 376.583, 834 374.995 C 844.972 367.957, 859.880 349.378, 867.697 333 C 881.525 304.032, 882.620 277.825, 870.912 256.088 C 860.659 237.052, 838.824 211.305, 824.399 201.239 C 820.624 198.606, 809.751 195.560, 797 193.564 C 788.866 192.290, 759.813 189, 756.704 189 C 756.133 189, 755.947 188.719, 756.290 188.377 C 756.633 188.034, 766.495 187.420, 778.207 187.013 C 798.661 186.303, 803 185.767, 803 183.954 C 803 183.496, 801.126 180.957, 798.835 178.311 C 791.793 170.179, 786.082 160.503, 772.973 134.498 C 750.270 89.460, 739.950 73.875, 720.222 54.836 C 702.252 37.494, 686.397 27.609, 671.679 24.569 C 667.461 23.697, 654.670 22.548, 643.255 22.014 C 622.696 21.053, 465.763 20.570, 464.868 21.465 M 439 57.001 C 433.775 57.473, 423.875 58.824, 417 60.003 C 389.117 64.784, 380.739 65.970, 364 67.501 C 332.860 70.349, 283.709 69.143, 236.500 64.372 C 216.613 62.363, 194.021 62.095, 188.292 63.801 C 183.680 65.175, 176.545 70.220, 174.239 73.738 C 172.921 75.749, 172.949 76.043, 174.517 76.645 C 175.626 77.071, 179.363 75.710, 184.786 72.907 C 193.122 68.598, 193.557 68.492, 204.288 68.158 C 210.325 67.970, 222.742 68.532, 231.882 69.408 C 241.022 70.283, 253.675 71.477, 260 72.062 C 278.658 73.785, 335.361 74.403, 355 73.097 C 375.139 71.758, 392.983 69.693, 408 66.964 C 448.910 59.531, 489.337 60.026, 535.500 68.526 C 559.232 72.895, 576.896 78.921, 601.500 91.040 C 625.368 102.796, 638.181 111.700, 657.560 130 C 668.134 139.984, 675.609 145.724, 676.664 144.669 C 678.602 142.731, 661.668 123.890, 648.500 113.333 C 629.313 97.951, 609.071 86.523, 582.500 76.069 C 559.020 66.832, 548.819 64.289, 520.092 60.509 C 493.185 56.968, 456.798 55.394, 439 57.001 M 451.500 84.704 C 444.488 85.186, 436 86.982, 436 87.983 C 436 89.779, 445.289 90.200, 469.903 89.522 C 496.903 88.779, 520.337 89.839, 538.500 92.626 C 558.179 95.645, 586.529 105.003, 599.500 112.761 C 608.959 118.418, 623.775 129.790, 632.500 138.090 C 642.480 147.584, 649.031 152.369, 650.306 151.094 C 654.214 147.186, 620.947 117.183, 600 105.724 C 586.322 98.242, 561.329 90.212, 543.500 87.571 C 524.360 84.736, 473.913 83.164, 451.500 84.704 M 446.693 98.969 C 440.118 105.119, 434.979 113.312, 433.185 120.500 C 431.717 126.389, 431.006 138.980, 431.916 143 L 432.708 146.500 433.436 143.500 C 433.836 141.850, 435.024 136.900, 436.077 132.500 C 438.465 122.515, 443.527 112.160, 449.519 105 C 454.689 98.824, 457.228 94.561, 456.293 93.627 C 454.828 92.161, 452.711 93.338, 446.693 98.969 M 218.052 95.596 C 210.705 97.571, 195.397 104.917, 187.007 110.495 C 178.536 116.127, 170.388 124.888, 167.473 131.500 C 164.739 137.701, 163.124 150.455, 165.158 149.787 C 165.896 149.544, 167.903 146.106, 169.617 142.146 C 176.401 126.476, 181.825 120.854, 200.342 110.297 C 212.282 103.489, 220.353 100.477, 229.109 99.562 C 235.988 98.843, 254.870 100.008, 278 102.580 C 290.285 103.946, 295.420 104.740, 314.747 108.266 C 319.689 109.167, 321.256 109.139, 322.247 108.132 C 325.503 104.821, 314.887 101.440, 292 98.498 C 257.271 94.034, 228.120 92.890, 218.052 95.596 M 299 123.611 C 299 125.046, 300.587 129.434, 302.526 133.361 C 307.341 143.108, 308.953 149.619, 309.681 162.250 C 310.021 168.162, 310.637 173, 311.049 173 C 311.461 173, 312.124 167.358, 312.522 160.461 C 313.547 142.679, 310.832 130.613, 304.259 123.750 C 300.935 120.278, 299 120.227, 299 123.611 M 499.500 147.473 C 489.620 149.298, 481.188 152.305, 468.500 158.528 C 448.867 168.157, 427.390 183.501, 421.356 192.208 C 418.824 195.862, 418.534 197.074, 418.720 203.231 C 418.970 211.510, 420.797 214.965, 428.322 221.388 C 433.822 226.084, 450.880 238, 452.101 238 C 452.501 238, 460.854 234.125, 470.664 229.389 C 491.884 219.144, 502.887 214.809, 515.869 211.577 C 533.491 207.191, 539.658 206.498, 560.500 206.559 C 578.503 206.613, 582.252 206.937, 598.040 209.809 C 623.934 214.520, 631.829 214.138, 639.978 207.785 C 649.078 200.691, 647.682 192.987, 634.849 179.478 C 616.533 160.196, 594.068 150.699, 558.144 147.051 C 543.939 145.609, 508.202 145.866, 499.500 147.473 M 501.654 167.983 C 478.291 174.279, 452.045 189, 444.757 199.894 C 442.443 203.353, 442.538 204.297, 445.560 207.889 C 450.695 213.992, 455.227 213.190, 479 201.973 C 493.836 194.973, 505.724 191.012, 511.980 190.985 C 518.382 190.957, 518.600 190.405, 516.582 179.326 C 515.597 173.922, 514.456 168.825, 514.045 168 C 512.984 165.868, 509.519 165.863, 501.654 167.983 M 204.500 168.969 C 191.332 170.853, 179.697 177.664, 171.670 188.188 C 168.178 192.767, 168.281 196.111, 172.047 200.400 C 177.115 206.173, 187.299 208.430, 224.500 212.025 C 259.063 215.364, 279.477 219.368, 292.232 225.307 C 302.918 230.284, 303.520 231.230, 303.401 242.860 C 303.282 254.539, 301.726 262.283, 298.525 267.132 C 296.912 269.575, 290.809 274.274, 279.874 281.491 C 261.031 293.927, 253.078 300.059, 240.176 312.099 C 230.463 321.163, 222.141 326.345, 215.751 327.309 C 210.029 328.172, 199.772 333.645, 193.833 339.006 C 185.005 346.973, 188.317 347, 205.023 339.098 C 222.960 330.614, 237.087 325.641, 240.883 326.474 C 242.448 326.818, 245.258 329.012, 247.372 331.540 C 251.483 336.459, 253.272 336.916, 257 334 C 258.375 332.924, 260.296 332.034, 261.270 332.022 C 264.713 331.979, 271.551 337.436, 287.433 352.902 C 306.339 371.313, 309.147 373, 320.884 373 C 343.676 373, 358.881 358.693, 346.633 348.772 C 343.567 346.288, 341.041 346.588, 335.516 350.092 C 332.834 351.793, 329.259 353.406, 327.570 353.677 C 319.851 354.917, 305.974 345.693, 294.684 331.818 C 284.036 318.732, 282.149 314.077, 284.555 306.834 C 286.272 301.665, 293.623 294, 296.864 294 C 299.638 294, 310.377 286.537, 314.593 281.678 C 320.889 274.422, 322.090 270.325, 323.001 253 C 323.449 244.475, 324.303 236.245, 324.898 234.712 C 326.400 230.840, 330.456 227.316, 337.500 223.761 C 350.561 217.172, 356.103 211.929, 354.054 208.101 C 352.693 205.557, 344.409 203, 337.529 203 C 331.456 203, 322.504 200.808, 316.900 197.949 C 314.678 196.815, 309.306 193.252, 304.961 190.031 C 289.482 178.554, 277.275 173.117, 261 170.449 C 249.986 168.644, 213.462 167.687, 204.500 168.969 M 597.064 182.939 C 593.778 185.019, 601.117 189.640, 612.884 192.901 C 616.783 193.981, 620.429 195.147, 620.986 195.491 C 623.408 196.989, 621.669 193.597, 617.941 189.551 C 612.331 183.466, 601.602 180.068, 597.064 182.939 M 213.250 187.723 C 211.463 187.945, 210 188.548, 210 189.063 C 210 190.245, 235.685 190.319, 236.414 189.140 C 237.398 187.547, 222.173 186.616, 213.250 187.723 M 659.550 188.848 C 660.072 189.315, 665.337 191.615, 671.250 193.958 C 677.163 196.302, 682 198.590, 682 199.043 C 682 200.032, 680.433 200.519, 672.269 202.069 C 663.420 203.750, 665.340 205.391, 675.391 204.737 C 684.323 204.155, 693.657 201.142, 696.601 197.889 C 698.429 195.868, 698.429 195.787, 696.605 194.453 C 692.681 191.584, 656.483 186.109, 659.550 188.848 M 140.500 194.108 C 138.300 194.592, 124.800 195.407, 110.500 195.921 C 96.200 196.435, 82.962 197.328, 81.082 197.906 C 76.573 199.292, 71.721 202.573, 59.340 212.607 C 53.702 217.176, 47.295 221.829, 45.102 222.948 C 42.910 224.066, 40.014 226.448, 38.667 228.241 C 34.903 233.250, 29.425 244.790, 26.963 252.897 C 25.008 259.331, 24.804 261.724, 25.259 272.854 C 25.814 286.448, 29.636 306.924, 33.143 315.099 C 36.862 323.767, 47.707 331.884, 66 339.694 C 78.558 345.054, 86.380 347.452, 88.569 346.612 C 90.114 346.019, 90.162 345.738, 88.928 344.531 C 88.142 343.764, 78.886 338.859, 68.358 333.632 C 57.830 328.405, 47.645 322.749, 45.725 321.063 C 40.952 316.872, 37.819 309.776, 34.091 294.709 C 28.558 272.349, 29.019 259.809, 35.901 245.457 C 40.532 235.798, 44.334 231.506, 53.714 225.348 C 58.546 222.175, 65.691 216.570, 69.590 212.892 C 82.104 201.088, 80.035 201.580, 119.598 201 C 154.667 200.486, 157 200.200, 157 196.413 C 157 193.222, 149.382 192.158, 140.500 194.108 M 739.500 197.764 C 740.050 198.289, 747.700 199.254, 756.500 199.910 C 784.385 201.987, 809.115 205.185, 814.417 207.401 C 821.518 210.368, 839.996 235.068, 844.041 247 C 848.311 259.594, 847.730 300.683, 842.956 323.837 C 839.395 341.104, 832.550 349.158, 812.407 359.779 C 797.187 367.804, 790.776 371.829, 791.458 372.933 C 792.598 374.777, 808.439 369.329, 822.442 362.278 C 830.870 358.033, 839.648 349.465, 843.370 341.849 C 849.421 329.467, 852.726 299.891, 851.636 267.859 C 850.860 245.052, 849.511 239.884, 841.010 227.175 C 830.513 211.483, 818.238 201.741, 805.409 198.920 C 799.051 197.522, 738.126 196.454, 739.500 197.764 M 656.529 210.953 C 655.903 211.965, 665.643 219, 667.669 219 C 668.327 219, 669.178 218.014, 669.561 216.809 C 670.582 213.590, 666.070 210, 661.003 210 C 658.866 210, 656.853 210.429, 656.529 210.953 M 544.500 216.208 C 539.293 219.194, 538.830 222.775, 542.837 229.054 C 549.185 239.002, 567.296 253.236, 581.054 259.091 C 603.459 268.625, 635.165 268.008, 668.204 257.394 C 686.934 251.378, 708.190 242.323, 713.697 238.015 C 717.636 234.933, 726.973 233.672, 741.271 234.291 C 762.047 235.190, 772.688 238.783, 781.922 248.018 C 794.162 260.257, 805.006 281.834, 804.997 293.932 C 804.993 298.954, 801.940 310.647, 797.040 324.412 C 791.686 339.452, 791.866 346.251, 797.691 348.905 C 804.880 352.181, 815.175 337.410, 821.200 315.175 C 824.225 304.008, 824.246 285.324, 821.244 274.830 C 815.277 253.970, 800.534 233.496, 784.500 223.803 C 773.295 217.029, 767.718 215.741, 747.500 215.256 C 720.374 214.605, 709.155 216.643, 690 225.699 C 662.894 238.514, 635.542 246.996, 621.312 246.999 C 603.219 247.002, 578.940 237.115, 564.230 223.755 C 560.006 219.919, 555.498 216.379, 554.210 215.890 C 551.039 214.684, 546.922 214.819, 544.500 216.208 M 83 223.931 C 68.488 228.742, 62.021 233.410, 59.546 240.861 C 54.755 255.287, 51.574 286.178, 53.974 294.969 C 56.115 302.805, 75.141 319.885, 79.044 317.473 C 80.931 316.307, 79.866 314.753, 70.630 305.196 C 58.230 292.364, 57.562 290.971, 58.345 279.535 C 58.685 274.566, 59.665 266.450, 60.523 261.500 C 63.676 243.308, 65.663 240.327, 79.500 233.030 C 89.011 228.015, 94.255 224.222, 93.460 222.935 C 92.606 221.554, 89.187 221.880, 83 223.931 M 104.829 239.567 C 90.780 242.109, 79.802 248.762, 76.334 256.836 C 75.202 259.472, 75.138 260.889, 76.031 263.593 C 78.293 270.448, 83.240 270.657, 96.020 264.437 C 107.950 258.631, 117.599 256.556, 129.202 257.304 C 143.386 258.217, 148.787 261.698, 154.951 273.899 C 156.508 276.980, 158.618 280.254, 159.641 281.175 C 166.230 287.110, 198.178 285.535, 211.760 278.605 C 220.676 274.056, 225.941 265.997, 223.873 260.064 C 221.416 253.016, 216.857 253.263, 197.129 261.513 C 192.404 263.489, 189.865 264.010, 187.300 263.528 C 185.398 263.172, 178.330 259.129, 171.594 254.544 C 155.942 243.893, 150.546 241.199, 141.313 239.433 C 132.048 237.660, 115.023 237.723, 104.829 239.567 M 725.451 252.647 C 724.102 254.103, 722.505 257.141, 721.903 259.397 C 719.934 266.780, 709.850 274.163, 683.500 287.515 C 650.847 304.062, 610.342 320.117, 565.455 334.307 C 457.772 368.347, 416.628 378.251, 361.368 383.436 C 300.622 389.135, 263.652 387.474, 228.945 377.484 C 199.801 369.096, 170.351 354.249, 157.400 341.415 C 149.606 333.692, 144.436 321.910, 142.081 306.500 C 138.775 284.872, 136.210 278, 131.443 278 C 130.021 278, 128.160 278.697, 127.309 279.549 C 125.601 281.256, 122.006 291.930, 121.990 295.339 C 121.976 298.415, 117.694 307.135, 115.035 309.500 C 104.526 318.849, 98.055 365.035, 99.343 421.500 C 100.307 463.773, 102.741 480.742, 110.469 499.066 C 127.146 538.610, 147.716 551.869, 207.301 561.479 C 243.600 567.333, 273.263 569.254, 327 569.229 C 412.765 569.190, 461.972 563.147, 517.500 545.836 C 545.475 537.114, 563.503 528.488, 588.219 511.998 C 627.926 485.506, 655.850 462.015, 674.917 439.065 C 684.837 427.125, 700.356 406.374, 710.488 391.500 C 724.626 370.747, 730.031 363.269, 736.497 355.516 L 743.156 347.532 742.501 341.009 C 741.965 335.674, 742.238 333.438, 744.001 328.728 C 748.150 317.637, 752.594 315.006, 767.193 314.994 C 785.740 314.980, 793.798 310.813, 788.250 304.106 C 787.286 302.941, 781.240 300.004, 774.794 297.570 C 761.052 292.380, 753.408 288.691, 750.151 285.675 C 747.118 282.866, 743.412 275.553, 741.891 269.373 C 740.235 262.645, 736.611 254.611, 734.099 252.099 C 731.275 249.275, 728.408 249.457, 725.451 252.647 M 493.595 287.168 C 490.214 291.995, 491.885 299.859, 497.134 303.819 C 500.021 305.998, 513.022 307.850, 536.546 309.434 C 549.171 310.284, 562.087 311.253, 565.250 311.588 C 570.890 312.185, 571 312.148, 571 309.676 C 571 305.398, 566.183 304.560, 532.500 302.979 C 501.533 301.526, 497.626 300.111, 498.200 290.560 C 498.440 286.560, 498.170 285.496, 496.845 285.227 C 495.935 285.042, 494.473 285.915, 493.595 287.168 M 436.758 287.327 C 429.803 289.507, 427.468 293.268, 430.061 298.114 C 431.458 300.725, 434.407 301.775, 447 304.147 C 463.740 307.300, 468 310.228, 468 318.579 C 468 323.571, 465.906 327.913, 460.638 333.845 C 453.879 341.454, 453.393 345.748, 458.589 351.923 C 461.658 355.571, 462.751 355.678, 468.253 352.871 C 483.383 345.152, 487 338.529, 487 318.545 C 487 308.204, 485.179 300.853, 481.628 296.857 C 477.968 292.737, 471.719 289.010, 465.856 287.449 C 459.435 285.740, 442.052 285.667, 436.758 287.327 M 0.130 510.251 L 0 730.002 447.250 729.751 L 894.500 729.500 894.583 509.500 C 894.628 388.500, 894.331 297.825, 893.922 308 C 893.487 318.813, 892.582 328.577, 891.742 331.500 C 887.237 347.175, 868.708 372.635, 840.433 402 C 824.339 418.714, 812.772 435.649, 802.674 457.280 C 794.599 474.578, 782.834 492.089, 769.496 506.663 C 760.008 517.030, 732.151 543.238, 722 551.348 C 698.454 570.158, 634.257 606.257, 599 620.512 C 592.675 623.069, 579.400 628.911, 569.500 633.494 C 552.546 641.343, 545.543 644.682, 503.500 664.959 C 467.663 682.244, 436.018 695.441, 427.787 696.534 C 418.960 697.706, 410.300 699.160, 404 700.528 C 400.425 701.304, 392.100 703.111, 385.500 704.542 C 378.900 705.974, 362.475 709.843, 349 713.140 C 287.653 728.149, 280.266 729.002, 211.605 728.996 C 162.934 728.993, 138.701 727.976, 126.131 725.411 C 112.953 722.721, 90.702 711.983, 74.453 700.472 C 59.684 690.009, 40.910 664.815, 35.725 648.500 C 33.153 640.409, 32.908 627.006, 34.875 602 C 38.439 556.675, 40.853 450.928, 39.121 416 C 37.481 382.916, 36.603 379.859, 18.543 344.355 C 6.366 320.416, 2.548 310.239, 1.119 297.913 C 0.617 293.583, 0.206 381.901, 0.130 510.251 M 0.491 510.500 C 0.491 631.500, 0.608 680.852, 0.750 620.170 C 0.892 559.489, 0.892 460.489, 0.750 400.170 C 0.608 339.852, 0.491 389.500, 0.491 510.500 M 712.894 297.056 C 708.710 298.696, 696.732 304.257, 686.274 309.416 C 654.203 325.237, 646.474 330.367, 643.206 338 C 641.500 341.985, 640.295 370.651, 641.745 372.740 C 642.869 374.360, 653.021 370.101, 679.110 357.064 C 701.368 345.941, 708.451 341.449, 715.315 334.101 C 722.728 326.166, 729 310.761, 729 300.490 C 729 293.062, 725.171 292.246, 712.894 297.056 M 403.949 319.064 C 387.589 320.481, 376 325.699, 376 331.649 C 376 336.213, 380.503 337.279, 401.451 337.674 C 422.338 338.068, 426.495 338.769, 429.989 342.489 C 434.799 347.609, 440.222 344.211, 442.186 334.847 C 443.202 330.006, 443.111 328.901, 441.419 325.453 C 439.899 322.357, 438.668 321.312, 435.500 320.424 C 429.921 318.862, 414.133 318.181, 403.949 319.064 M 612 342.652 C 608.975 343.461, 597.275 346.993, 586 350.501 C 574.725 354.009, 555.496 359.831, 543.269 363.440 C 517.516 371.040, 513.357 372.542, 510.142 375.402 C 508.007 377.302, 507.839 378.067, 508.370 383.500 C 509.014 390.092, 513.155 407.041, 515.483 412.613 C 517.248 416.837, 514.821 417.366, 541.553 406.928 C 563.939 398.187, 577.580 393.568, 584.121 392.514 C 586.529 392.126, 590.421 390.702, 592.768 389.351 C 602.028 384.021, 618.300 364.613, 621.643 354.911 C 623.488 349.556, 621.648 340.871, 618.715 341.091 C 618.047 341.141, 615.025 341.843, 612 342.652 M 126.046 347.242 C 121.053 355.986, 120.674 362.386, 125.501 356.461 C 127.832 353.599, 131 346.030, 131 343.322 C 131 340.556, 128.929 342.195, 126.046 347.242 M 145.745 366.685 C 140.488 375.176, 133 397.457, 133 404.611 C 133 408.474, 133.501 409.665, 136.175 412.164 C 137.922 413.795, 140.608 415.780, 142.146 416.575 C 144.751 417.923, 145.039 417.868, 146.394 415.760 C 148.374 412.679, 149.654 405.001, 151.033 387.922 C 152.222 373.201, 151.575 364.025, 149.294 363.265 C 148.642 363.047, 147.045 364.586, 145.745 366.685 M 684 379.548 C 643.323 397.039, 638.500 401.769, 638.500 424.169 C 638.500 433.027, 638.704 434.056, 640.924 436.419 C 642.258 437.839, 644.344 439, 645.560 439 C 649.541 439, 665.211 420.463, 684.447 393 C 693.606 379.923, 696.577 374.989, 695.276 375.016 C 694.849 375.025, 689.775 377.064, 684 379.548 M 173.767 382.766 C 170.665 386.319, 169.723 391.970, 170.244 403.911 C 171.112 423.796, 174.467 428.984, 188.477 432.106 C 193.312 433.183, 197.466 433.867, 197.708 433.625 C 197.950 433.384, 198.606 430.106, 199.166 426.343 C 199.726 422.579, 201.046 415.450, 202.099 410.500 C 203.152 405.550, 204.011 400.309, 204.007 398.854 C 203.997 395.172, 198.381 390.503, 188.521 385.979 C 177.851 381.083, 175.654 380.604, 173.767 382.766 M 480.500 383.668 C 479.400 383.907, 467.025 386.352, 453 389.100 C 406.347 398.242, 400.107 400.230, 396.793 407.009 C 394.962 410.753, 393.239 429.832, 394.337 434.205 C 395.260 437.884, 398.990 439, 410.361 439 C 432.272 439, 475.939 430.663, 489.042 423.978 C 495.289 420.792, 495.382 420.003, 491.419 403.789 C 488.164 390.467, 485.151 382.830, 483.265 383.116 C 482.844 383.180, 481.600 383.428, 480.500 383.668 M 227.531 404.561 C 224.763 407.548, 220.909 419.232, 220.233 426.688 L 219.763 431.875 225.131 433.405 C 233.471 435.781, 241.996 436.891, 261.500 438.140 C 281.107 439.395, 287.015 438.710, 289.029 434.946 C 289.614 433.853, 290.507 429.320, 291.015 424.872 C 292.307 413.537, 291.027 410.636, 283.821 408.575 C 276.212 406.397, 244.741 402.009, 236.702 402.004 C 230.690 402, 229.630 402.296, 227.531 404.561 M 337.500 405.594 C 325.696 407.002, 315.999 408.625, 315.355 409.299 C 314.003 410.718, 309.993 427.480, 310.015 431.624 C 310.036 435.567, 311.066 436.872, 315.064 438.018 C 319.643 439.332, 362.483 439.271, 367.259 437.945 C 373.336 436.257, 374.333 433.709, 374.333 419.866 C 374.333 408.982, 374.139 407.695, 372.206 405.761 C 369.128 402.684, 362.176 402.651, 337.500 405.594 M 608 416.968 C 606.625 417.406, 599.875 420.330, 593 423.464 C 571.095 433.452, 552.132 440.799, 538.817 444.456 C 527.824 447.476, 524.049 453.241, 526.005 464.027 C 528.215 476.214, 538.992 501.999, 544.280 507.750 C 548.473 512.311, 551.446 511.051, 578 493.457 C 615.828 468.395, 628 458.977, 628 454.772 C 628 453.781, 626.443 450.614, 624.540 447.735 C 620.616 441.796, 618.006 432.960, 617.986 425.540 C 617.965 417.507, 617.265 415.986, 613.633 416.086 C 611.910 416.133, 609.375 416.530, 608 416.968 M 476 464.328 C 462.525 468.877, 444.802 474.350, 436.617 476.489 C 421.251 480.505, 416.430 482.780, 414.279 487.030 C 412.752 490.048, 412.582 520.781, 414.030 532 C 415.107 540.344, 417.165 543.999, 421.427 545.139 C 429.216 547.222, 470.200 539.186, 502 529.340 C 522.624 522.955, 524.416 521.189, 520.922 510.701 C 519.786 507.290, 516.916 500.888, 514.544 496.473 C 508.586 485.385, 506.955 480.089, 505.927 468.502 C 505.257 460.938, 504.624 458.198, 503.329 457.252 C 502.388 456.563, 501.366 456.013, 501.059 456.028 C 500.751 456.044, 489.475 459.778, 476 464.328 M 124.022 473.215 C 123.988 475.843, 126.607 483.032, 133.779 500 C 140.863 516.758, 141.704 518.301, 143.237 517.354 C 146.155 515.550, 141.441 501.070, 132.865 485.500 C 126.878 474.631, 124.055 470.709, 124.022 473.215 M 161 490.395 C 161 491.712, 161.862 495.649, 162.916 499.145 C 163.969 502.640, 165.134 507.843, 165.504 510.707 C 166.112 515.417, 165.933 516.158, 163.633 518.457 C 161.656 520.435, 160.081 521, 156.545 521 C 154.045 521, 152 521.410, 152 521.911 C 152 523.688, 158.050 527.875, 163.734 530.033 C 173.347 533.681, 189.901 537.499, 191.065 536.335 C 191.768 535.632, 191.476 533.746, 190.142 530.361 C 186.234 520.445, 176.629 502.076, 172.388 496.405 C 166.382 488.376, 161 485.535, 161 490.395 M 383 489.125 C 379.506 490.521, 364.380 492.671, 345.344 494.479 C 324.802 496.429, 323.193 496.775, 321.306 499.656 C 319.448 502.491, 319.754 505.553, 324.131 527.945 C 327.292 544.118, 328.750 548.265, 331.713 549.507 C 337.991 552.140, 383.317 551.635, 389.397 548.865 C 393.660 546.923, 394.327 542.181, 393.669 518.500 C 392.858 489.303, 391.553 485.709, 383 489.125 M 199 497.852 C 199 498.871, 201.448 504.692, 204.440 510.789 C 210.691 523.526, 214.253 534.145, 213.406 537.520 C 212.646 540.547, 215.850 542.269, 226.245 544.416 C 236.241 546.480, 240.882 546.470, 241.683 544.383 C 242.024 543.494, 240.138 536.406, 237.490 528.633 C 230.032 506.734, 226.177 500.007, 221.076 499.993 C 219.659 499.989, 214.759 499.089, 210.187 497.993 C 199.954 495.540, 199 495.528, 199 497.852 M 260.658 502.009 C 252.765 503.017, 251.274 504.594, 252.906 510.207 C 254.848 516.882, 266.484 540.076, 269.974 544.227 C 274.176 549.225, 280.358 551, 293.559 551 C 306.013 551, 306.556 550.590, 305.644 541.864 C 304.736 533.184, 300.171 513.340, 297.810 507.812 C 295.944 503.444, 295.469 503.052, 290.854 502.062 C 285.361 500.884, 269.678 500.856, 260.658 502.009 M 640 522.887 C 634.775 525.005, 619.700 531.808, 606.500 538.005 C 551.359 563.892, 523.248 575.913, 486.500 589.321 C 439.688 606.400, 429.074 608.422, 370 611.512 C 295.272 615.422, 283.641 615.823, 252 615.585 C 219.556 615.341, 218.185 615.251, 208.500 612.730 C 185.001 606.612, 169.014 598.339, 151 582.977 C 143.023 576.173, 137.742 572.858, 136.638 573.962 C 135.402 575.198, 137.545 578.372, 144.991 586.331 C 160.105 602.489, 184.836 614.201, 213.427 618.741 C 228.996 621.214, 305.768 621.190, 348 618.700 C 407.057 615.218, 427.506 613.067, 446.500 608.340 C 484.259 598.944, 555.881 570.106, 612.500 541.504 C 635.411 529.930, 652 520.651, 652 519.410 C 652 518.390, 648.819 519.311, 640 522.887 M 692.459 522.848 C 688.586 524.377, 676.886 530.053, 666.459 535.462 C 608.980 565.279, 583.647 577.215, 548 591.277 C 517.099 603.466, 504.139 606.998, 444 619.619 C 355.519 638.187, 331.669 641.002, 236.500 644.107 C 194.543 645.476, 174.718 644.914, 163.583 642.040 C 150.197 638.585, 116.363 619.225, 105.842 609 C 100.032 603.353, 97.144 597.078, 96.900 589.568 C 96.629 581.203, 95.321 582.055, 94.702 591 C 93.384 610.057, 94.169 611.139, 123 629.992 C 131.210 635.360, 144.755 642.463, 150.778 644.557 C 163.310 648.916, 169.911 649.294, 221.500 648.614 C 247.900 648.266, 270.625 647.801, 272 647.580 C 273.375 647.359, 281.925 646.891, 291 646.540 C 344.145 644.484, 393.502 637.047, 477 618.513 C 510.247 611.133, 552.715 596.714, 589 580.485 C 637.997 558.571, 690.060 531.200, 698.481 522.928 C 702.142 519.331, 701.394 519.321, 692.459 522.848 M 277 591.051 C 283.070 592.131, 363.975 592.085, 366.500 591 C 367.650 590.506, 348.096 590.164, 320.500 590.195 C 293.194 590.227, 274.440 590.596, 277 591.051" stroke="none" fill="transparent" fill-rule="evenodd"/></svg>